<svg id="Layer_1" data-name="Layer 1" xmlns="http://www.w3.org/2000/svg" xmlns:xlink="http://www.w3.org/1999/xlink" viewBox="0 0 1465.11 994.01"><defs><style>.cls-1{fill:none;}.cls-2{fill:#e8e8e8;}.cls-3{fill:#bf3e5e;}.cls-13,.cls-4{fill:#161616;}.cls-5{fill:#e5261f;}.cls-12,.cls-6{fill:#fff;}.cls-10,.cls-14,.cls-16,.cls-17,.cls-7,.cls-8,.cls-9{fill:#6d6c6c;}.cls-7{opacity:0.12;}.cls-10,.cls-14,.cls-15,.cls-16,.cls-17,.cls-7,.cls-8,.cls-9{isolation:isolate;}.cls-8{opacity:0.13;}.cls-9{opacity:0.1;}.cls-10{opacity:0.11;}.cls-11{fill:#d6d6d6;}.cls-12,.cls-13{stroke:#161616;stroke-width:2px;}.cls-14{opacity:0.22;}.cls-15{fill:gray;opacity:0.39;}.cls-16{opacity:0.05;}.cls-17{opacity:0.14;}.cls-18{clip-path:url(#clip-path);}.cls-19{clip-path:url(#clip-path-2);}.cls-20{clip-path:url(#clip-path-3);}.cls-21{clip-path:url(#clip-path-4);}</style><clipPath id="clip-path" transform="translate(-25.84 -20.52)"><rect class="cls-1" x="765" y="190" width="195.49" height="75.59"/></clipPath><clipPath id="clip-path-2" transform="translate(-25.84 -20.52)"><rect class="cls-1" x="379.23" y="-135.82" width="1595.21" height="2064.39"/></clipPath><clipPath id="clip-path-3" transform="translate(-25.84 -20.52)"><rect class="cls-1" x="793.56" y="348.7" width="114.97" height="64.67" transform="translate(-4.45 10.1) rotate(-0.68)"/></clipPath><clipPath id="clip-path-4" transform="translate(-25.84 -20.52)"><rect class="cls-1" x="444" y="50.27" width="1465.92" height="1897.08" transform="translate(-11.74 14) rotate(-0.68)"/></clipPath></defs><g id="Group"><path id="Path" class="cls-2" d="M127.4,774.1c68-33.7,146.2-20.3,217.7-7.6,38.1,6.8,76.1,13.1,114.7,16.3A936.06,936.06,0,0,0,584,785c80.1-4,158.8-19.8,237.8-32.9s159.6-23.2,239.6-13.7c77.9,9.3,153.9,42.2,233.3,35.6a216.78,216.78,0,0,0,26.5-3.8c1.9-.4,1.1-3.3-.8-2.9-79.9,16.2-158.4-15.8-236.3-28.7s-157.3-5.8-234.9,6.1c-80.6,12.3-160.5,29.7-241.9,35.8-82.1,6.1-163.8.3-244.8-14-69.3-12.3-144.1-28.5-212.9-5a204.4,204.4,0,0,0-23.7,9.9A1.55,1.55,0,0,0,127.4,774.1Z" transform="translate(-25.84 -20.52)"/><path id="Path-2" data-name="Path" class="cls-2" d="M1068.1,905.8c-3.7-7.8-24.9-58.2-5.6-57a1.44,1.44,0,0,0,1.4-1.9,131.44,131.44,0,0,1,1-47.2,127,127,0,0,1,6.3-21c2.4-6.1,8.1-23.4,17.3-15.3,5.6,5,5,15.8,5.6,22.6.6,8,.9,16,.9,24.1a302.2,302.2,0,0,1-4.2,48.4c-1.5,8.5-3.3,17-5.5,25.3-1.2,4.5-2.5,8.9-3.8,13.3-1.3,4-2.3,10.1-6.9,11.6-1.8.6-1,3.5.8,2.9,6.4-2.2,7.8-9.8,9.5-15.5,2.9-9.4,5.3-19,7.3-28.7A301.18,301.18,0,0,0,1098,809c0-10.2-.5-20.4-1.5-30.5-.7-6.4-1.2-14.2-7-18.3-13.9-9.8-21.3,17.1-24,25.8a133.46,133.46,0,0,0-4.4,61.5,23.07,23.07,0,0,0,1.4-1.9c-12-.7-11.7,13.6-10.2,21.6a161.18,161.18,0,0,0,13.2,39.9c.9,2,3.4.4,2.6-1.3Z" transform="translate(-25.84 -20.52)"/><path id="Path-3" data-name="Path" class="cls-2" d="M1098.3,823.5a61.88,61.88,0,0,1,2.3-20.1,66.7,66.7,0,0,1,3.5-9.4c.7-1.4,1.4-2.8,2.2-4.1.5-.7,1.1-1.3,1.6-2,3-3,5.5-2.5,7.4,1.6a1.5,1.5,0,0,0,2.9.8c2-6.6,5.9-14.8,13.9-15.2,8.5-.4,10.8,8.2,11.1,15,.7,13.1-1.6,26.5-5,39.1-7,25.7-19.9,49.4-32.7,72.7-.9,1.7,1.7,3.2,2.6,1.5,15.9-29,32.3-59.1,36.9-92.2a105.83,105.83,0,0,0,1.1-22.5c-.4-5.2-1.8-11-6.2-14.3-4.2-3.1-9.9-2.8-14.3-.4-5.7,3.2-8.6,9.4-10.4,15.4,1,.3,1.9.5,2.9.8a6.1,6.1,0,0,0-4.9-7.1c-3.8-.9-7.1,1.6-9.2,4.6-7.1,9.9-9.3,23.9-8.8,35.7.1,2,3.1,2,3.1.1Z" transform="translate(-25.84 -20.52)"/><path id="Path-4" data-name="Path" class="cls-2" d="M1027.7,954.3c43-23.5,94-22,141.1-15.2,51.3,7.4,102.9,21,155,14.5,28.9-3.6,58.2-13.5,87.4-6.6,1.9.4,2.7-2.4.8-2.9-25.3-6-50.7.3-75.7,4.6-27.1,4.6-54.3,4.2-81.6.9-51.2-6.1-101.7-20.3-153.7-17.6-26,1.3-51.8,7.1-74.8,19.6A1.55,1.55,0,0,0,1027.7,954.3Z" transform="translate(-25.84 -20.52)"/><path id="Path-5" data-name="Path" class="cls-2" d="M1159.4,885.4c38.3,3.5,75.5-7.7,112.5-16.1,19.5-4.4,39.3-8.2,59.3-8.4,20.9-.3,41.4,3.9,61.9,7.4,21.8,3.8,43.8,6.6,65.8,2.5,1.9-.4,1.1-3.2-.8-2.9-40.9,7.6-80.9-9.4-121.6-10.1-38.1-.6-74.8,11.6-111.7,19.3-21.5,4.5-43.3,7.3-65.3,5.3-2-.1-2,2.9-.1,3Z" transform="translate(-25.84 -20.52)"/><path id="Path-6" data-name="Path" class="cls-2" d="M270.4,752.5a54.33,54.33,0,0,1-8.9-12.8,43.67,43.67,0,0,1-2.8-7.1c-.6-1.9-1.2-3.9-.8-5.8.4-2.2,2.8-7.1,6.3-3.9a1.52,1.52,0,0,0,2.5-1.5c-5.5-19.8-6.8-39.9-8.2-60.3s-2.9-41.1,1.1-61.2c1-4.8,1.7-11.8,7.1-13.5,6.7-2.2,11.4,4.9,13.3,10.2,3.4,9.2,5.5,19.2,7.7,28.8a463.46,463.46,0,0,1,9.8,61.9,478.9,478.9,0,0,1,1,68.8c-.1,1.9,2.9,1.9,3,0a467.13,467.13,0,0,0-12.7-138.9c-1.4-5.6-2.8-11.1-4.4-16.6-1.3-4.4-2.7-8.9-5.6-12.4-3.9-4.6-11.3-7.1-16.4-2.9-3,2.5-4,6.7-4.8,10.3a124,124,0,0,0-2.6,16,223.22,223.22,0,0,0-.4,34.7c1.4,25.5,2.5,51.4,9.3,76.1.8-.5,1.7-1,2.5-1.5-5.5-5.1-11.8,1.4-11.5,7.4.4,9.7,7.2,19.6,13.5,26.4,1.2,1.4,3.3-.7,2-2.2Z" transform="translate(-25.84 -20.52)"/><path id="Path-7" data-name="Path" class="cls-2" d="M299.7,666.1c-4.1-9.5-1.8-19.7.7-29.3,2.2-8.7,4.4-17.2,4.4-26.2.1-10.2-.6-20.1,2-30.1a71.17,71.17,0,0,1,5-13.3c.9-1.8,2-4.7,3.5-6,4.5-4,6.8,3.4,7.8,6.2,6.8,18.7,8,38.9,8.3,58.6q.6,31.05-1.7,62a705.54,705.54,0,0,1-8.8,70.8c-.3,1.9,2.6,2.7,2.9.8,8.3-47,12.1-95,10.3-142.6a201.82,201.82,0,0,0-3.5-32.9,120.72,120.72,0,0,0-4.1-15.7c-1.2-3.5-2.4-8.3-5.6-10.6-7-5.1-11.7,7.4-13.6,11.9a72.53,72.53,0,0,0-5.8,28.7c0,6.6.5,13.2-.2,19.8-.7,6.4-2.6,12.5-4.1,18.7-2.6,10.3-4.5,20.7-.2,30.8.9,1.6,3.5.1,2.7-1.6Z" transform="translate(-25.84 -20.52)"/><path id="Path-8" data-name="Path" class="cls-2" d="M164.1,532.8c57-42.5,115.2-85.3,181.3-112.9,32.6-13.6,67.1-23.1,102.4-25.9,39-3.1,78.2,2.1,116,11.9,77.2,20.2,147.3,59.2,220.3,90.2,70.7,30.1,144.8,49.8,220.4,62.7s152.3,19.6,228.8,25.5c9.5.7,19,1.5,28.5,2.2,1.9.1,1.9-2.9,0-3-78.3-5.9-156.7-11.9-234.3-24-76.7-11.9-152.8-29.8-224.9-58.9-73.2-29.5-142.4-68.8-218.1-91.9-36.8-11.2-75-18.6-113.6-18.6-35.5,0-70.6,6.8-104,18.4-67.1,23.4-126.5,64.3-183.3,106.1l-21,15.6c-1.6,1.2-.1,3.8,1.5,2.6Z" transform="translate(-25.84 -20.52)"/><path id="Path-9" data-name="Path" class="cls-2" d="M1026.9,557c61.3,1.3,120.5-16.5,179.3-31.5,30.2-7.7,60.6-14.8,91.6-18.1a313.28,313.28,0,0,1,92.7,3.2,305.67,305.67,0,0,1,98.2,36.9,1.5,1.5,0,0,0,1.5-2.6A309.89,309.89,0,0,0,1314.5,503c-62.4,3.9-121.9,24.4-182.5,38.2-34.5,7.9-69.7,13.6-105.2,12.9-1.8-.1-1.8,2.9.1,2.9Z" transform="translate(-25.84 -20.52)"/><path id="Path-10" data-name="Path" class="cls-2" d="M1345.1,764.8a438.45,438.45,0,0,1,129.4-.4c1.9.3,2.7-2.6.8-2.9a449.31,449.31,0,0,0-131,.4C1342.4,762.2,1343.2,765,1345.1,764.8Z" transform="translate(-25.84 -20.52)"/><path id="Path-11" data-name="Path" class="cls-2" d="M28.3,673.1A1093.49,1093.49,0,0,1,133,562.6c1.4-1.3-.7-3.4-2.1-2.1A1061.46,1061.46,0,0,0,26.2,671C25,672.5,27.1,674.6,28.3,673.1Z" transform="translate(-25.84 -20.52)"/><path id="Path-12" data-name="Path" class="cls-2" d="M1190.3,128.1c-13.5,4.7-24.1-6.6-30.7-16.9-6.5-10-11.2-20.9-11.2-33.1.1-22.9,15.4-43,36.6-51,19.6-7.3,43.5-3.4,58.7,11.4a50.1,50.1,0,0,1,9.8,58.5,122.61,122.61,0,0,1-10,15.7c-2.1,2.9-4.1,6.1-7,8.4-3.4,2.6-7.2,3.1-11.3,3.6-14,1.7-28.1,3.2-42.2,4.8-1.9.2-1.9,3.2,0,3,15.2-1.7,30.7-2.8,45.8-5.2,12.3-2,18.9-14.4,24.7-24.3,11.8-20.1,10.9-44.6-4.3-62.8s-41.7-24-63.7-16.5-38.6,27.5-40.1,51.1c-.9,14.9,5,28.6,13.3,40.6,7.2,10.4,18.7,20.2,32.2,15.5,2-.5,1.2-3.4-.6-2.8Z" transform="translate(-25.84 -20.52)"/><path id="Path-13" data-name="Path" class="cls-2" d="M276.8,165.7c-4.2-10.3,6.8-18.7,16.1-19.4,9.9-.7,19.4,3.5,29,5.3a107.31,107.31,0,0,0,54.2-3.7c16.8-5.6,33.2-14.8,51.3-15.2,18.6-.3,35.2,10.7,54,8.4,9.1-1.1,17.9-4,27.1-4.7,8.5-.7,21.3.9,24.3,10.6s-10.6,17.8-17.8,21.3a60.64,60.64,0,0,1-25.7,6.1c-9.4,0-17.8-2.8-26.6-5.7a71.4,71.4,0,0,0-24.6-4.1c-16.2.3-31.8,5.5-47.3,9.8-9.6,2.7-19.4,5.2-29.4,6-10.3.8-19.7-1-29.6-3.4s-18.4-1.5-28.3-.1c-5.9.8-12.1,1.3-17.6-1.6-4.9-2.6-8.9-7.2-7.7-13.1.4-1.9-2.5-2.7-2.9-.8-1.5,6.9,2.5,12.7,8.5,16.1,8.1,4.6,17.1,2.7,25.9,1.4a51.25,51.25,0,0,1,17.9.1c5.4,1.1,10.7,2.9,16.2,3.8,8.6,1.4,17.3.9,25.9-.4,19.6-3.2,38.1-11.1,57.7-13.9a71.09,71.09,0,0,1,31.1,2c9.5,2.9,18.5,6.6,28.5,6.9,16.1.6,37.2-5.8,46.6-19.8,4.2-6.3,2.9-13.6-2.8-18.4-6.3-5.5-15.1-6.4-23.1-5.6-10.3,1-20.2,4.5-30.5,5-11.5.6-22.1-3.8-33.1-6.6-20.5-5.2-38.5,1.5-57.5,8.9-11.6,4.5-23.2,8.2-35.7,9.3-13.6,1.2-26.6-.8-39.8-4.2-9.4-2.4-20.2-4.9-29,.6-6.7,4.2-11.3,12.1-8.2,19.9.7,1.7,3.6,1,2.9-.8Z" transform="translate(-25.84 -20.52)"/><path id="Path-14" data-name="Path" class="cls-2" d="M1112.9,330.8c14.4-14,35.3-13.8,54.1-12,22,2.1,43.3,4.9,65.5,2.5a240.41,240.41,0,0,0,33.6-6.6c11.6-3,23.5-6.2,35.7-5.8s23.8,5.3,35.9,7c11,1.5,22.1.2,33-1.9,9.8-1.8,19.5-4.8,29.6-4.3,8.9.4,19.8,4.9,19,15.7-.8,10.1-12.2,17.1-21.3,18.6-11.6,1.8-23.4-2.4-34.9-3.3-21.6-1.7-37.9,12.8-58.4,16.5-21.6,3.9-41.9-8-62.4-12.4-25.2-5.3-49.1,5.7-73.7,9.7-12.3,2-26.6,4.7-39,2.2-6.1-1.3-11.9-4.3-14.9-10-2.7-5.3-2.8-11.7,1.7-16,1.4-1.3-.7-3.5-2.1-2.1-5.8,5.5-5.5,14.2-1.5,20.8,4.8,7.9,14,10.6,22.7,11.1,25.6,1.5,50.6-7.2,75.2-12.4,13.7-2.9,26.3-1.9,39.7,1.9,11.2,3.2,22,7.6,33.5,9.7a59.33,59.33,0,0,0,31.8-2.4c10.9-3.9,21.1-10,32.5-12.6,21.6-4.9,45.9,11,65.3-4.2,6.5-5.1,11-13.3,7.9-21.5-2.7-7.1-9.6-10.6-16.7-11.6-9.2-1.4-18.1.6-27.1,2.5-14.3,3-28.9,5.4-43.5,2.6-12.6-2.4-24.5-6.9-37.6-6.3-12.4.6-24.4,4.2-36.4,7.2a207.39,207.39,0,0,1-46.4,6.3c-13.6.2-27-1.5-40.5-3-21.3-2.4-45.6-3.9-62.2,12.2-1.6,1.1.5,3.2,1.9,1.9Z" transform="translate(-25.84 -20.52)"/><path id="Path-15" data-name="Path" class="cls-2" d="M461.6,1010.7A64.48,64.48,0,0,1,450,996.8a55.07,55.07,0,0,1-4-7.6c-.6-1.5-1.6-3.7-1.4-5.4.3-2.9,3.1-7.3,6.5-4.6a1.52,1.52,0,0,0,2.4-1.8,48.91,48.91,0,0,1-5.7-24.3,14.46,14.46,0,0,1,.9-4.6,13.06,13.06,0,0,1,2.1-3.6c1.8-1.8,3.4-1.8,4.8.2,3.7,2.7,5.2,7.9,6.9,12a239,239,0,0,1,13.7,45.3c1-.3,1.9-.5,2.9-.8a131,131,0,0,1-6.1-23.1c-.9-5.6-2.5-24.2,9-18,7.4,4,8.8,15.9,8.8,23.4.1,8.3-1.5,16.4-3.1,24.5-.4,1.9,2.5,2.7,2.9.8,2-10.3,4.1-21,2.8-31.6-1-7.7-4.4-20-13.7-21.2-7.4-.9-10.4,6.6-10.6,12.7-.4,11.1,3.4,23.1,7.1,33.4a1.51,1.51,0,0,0,2.9-.8,237.36,237.36,0,0,0-9.5-34.2c-1.8-5-3.7-9.9-5.9-14.8-1.6-3.7-3.2-9-7.1-11.1-6.2-3.4-10.6,3.5-11.6,8.7-1.8,9.5,1.5,20.4,5.7,28.8l2.4-1.8c-6.1-5.1-12.3,2.2-11.4,8.6,1.5,10.2,10.5,20.3,17.7,27.1,1.5,1.1,3.6-1,2.2-2.3Z" transform="translate(-25.84 -20.52)"/><path id="Path-16" data-name="Path" class="cls-2" d="M341.2,258c22.2-4.5,44.8-9,67.6-7,21.9,1.9,42.6,9.7,63.8,15.1,41.4,10.4,84.3,14.1,126.9,14,24.4-.1,48.7-1.3,73-3.3,1.9-.2,1.9-3.2,0-3-43.4,3.4-87.2,4.8-130.7.8a456.64,456.64,0,0,1-65.7-10.7c-20.6-5-40.6-12.5-61.7-15.2-24.9-3.2-49.7,1.6-74,6.5-1.9.3-1.1,3.2.8,2.8Z" transform="translate(-25.84 -20.52)"/><path id="Path-17" data-name="Path" class="cls-2" d="M575.2,258.2c73.4-3.8,144.7-28.8,218.7-24.2,1.9.1,1.9-2.9,0-3-73.9-4.6-145.3,20.5-218.7,24.2C573.2,255.3,573.2,258.3,575.2,258.2Z" transform="translate(-25.84 -20.52)"/><path id="Path-18" data-name="Path" class="cls-2" d="M1179.1,757.4a59.73,59.73,0,0,1-4.3-22.9,53,53,0,0,1,1.4-11.9c.8-3.6,4.8-12.9,9.4-7a1.54,1.54,0,0,0,2.6-1.1,85.19,85.19,0,0,1,.8-25.7,71.72,71.72,0,0,1,3-11,55.17,55.17,0,0,1,2.7-6.7c1.6-3,3.4-3.8,6.4-5.3,5.4-2.5,5.5-9,6.8-14.2,1.8-7.1,3.9-14.3,8-20.4,2.4-3.6,6.9-9.4,11.8-8.1,3.9,1,5.3,5.2,6,8.8,1.6,7.9.5,16.7.1,24.7a345.39,345.39,0,0,1-6.8,52.7,350.14,350.14,0,0,1-16.8,55.7c-.7,1.8,2.2,2.6,2.9.8a343.29,343.29,0,0,0,24.1-117.6c.2-7.8,1.2-33.8-14.2-27.8-6.5,2.6-10.9,10.5-13.5,16.6a84.09,84.09,0,0,0-3.6,10.7c-1.5,5.5-1.5,12.3-6.8,15.5-3.1,1.9-5.1,2.7-6.9,6.3a68,68,0,0,0-4.8,13.3,84.1,84.1,0,0,0-2.1,31.6c.9-.4,1.7-.7,2.6-1.1a6.75,6.75,0,0,0-8.2-1.8c-3.9,1.8-5.3,6.3-6.2,10.1a62.12,62.12,0,0,0,2.9,36.4c.5,2,3.4,1.2,2.7-.6Z" transform="translate(-25.84 -20.52)"/><path id="Path-19" data-name="Path" class="cls-2" d="M1150.7,752.2c-4.3-6.7-8.5-13.7-10.7-21.5a34.29,34.29,0,0,1-1.4-11c.3-4.1,2-7.3,3.4-11.1,2.2-6.1-1.3-11.9-2.7-17.8-.7-2.8-4.8-27.7,4-24.3a1.46,1.46,0,0,0,1.8-1.8c-2.9-12.9-5.9-26.6-1.8-39.5,1.8-5.7,9.1-20.5,16.6-13.7,4.6,4.2,7.2,12,9.3,17.6,9.2,25.3,13.2,53.4,15,80.2.1,1.9,3.1,1.9,3,0a363.56,363.56,0,0,0-7.3-52c-3.2-15-6.7-31.7-15.4-44.7-2.7-4-6.6-7.4-11.7-5.3-5.4,2.2-9.1,8.8-11.2,13.8-5.9,14.3-2.6,29.9.6,44.5l1.8-1.8c-5.3-2.1-8.5,3.9-9.3,8.4-1.6,10,2.1,19.3,4.4,28.8,1.4,5.8-2.1,9.9-3.1,15.3a29.16,29.16,0,0,0,.1,11.4c1.7,9.5,6.9,18.2,12,26.3,1,1.3,3.6-.2,2.6-1.8Z" transform="translate(-25.84 -20.52)"/><path id="Path-20" data-name="Path" class="cls-2" d="M1231,701.9c2.7-9.3,5.5-18.6,11.2-26.5,5.5-7.6,11.9-14.8,18-21.9,3.2-3.6,6.4-7.2,9.9-10.5a27.12,27.12,0,0,1,5.9-4.7c4.5-2.4,7.5.7,8.7,4.8,2.7,9.4.5,19.6-1.9,28.9a294,294,0,0,1-46.6,98c-1.1,1.6,1.5,3.1,2.6,1.5a297.08,297.08,0,0,0,44.3-89.5c2.3-7.7,4.6-15.6,5.4-23.6.7-6.5.9-15.5-3-21.1-8.2-11.6-25.2,11.5-29.7,16.8-5.8,6.8-12,13.6-17.1,21-5.3,7.8-8,16.9-10.6,25.9-.6,1.9,2.3,2.7,2.9.9Z" transform="translate(-25.84 -20.52)"/><path id="Path-21" data-name="Path" class="cls-2" d="M1225.2,624.3a525.55,525.55,0,0,1-29.7,136.3c-.7,1.8,2.2,2.6,2.9.8a528.36,528.36,0,0,0,29.8-137.1c.1-1.9-2.9-1.9-3,0Z" transform="translate(-25.84 -20.52)"/><path id="Path-22" data-name="Path" class="cls-2" d="M1198,664.6a249.67,249.67,0,0,1,8.4,62,1.5,1.5,0,0,0,3,0,251.41,251.41,0,0,0-8.5-62.8A1.5,1.5,0,0,0,1198,664.6Z" transform="translate(-25.84 -20.52)"/><path id="Path-23" data-name="Path" class="cls-2" d="M1211.6,641.9a176,176,0,0,1,5.3,42.1,1.5,1.5,0,0,0,3,0,182,182,0,0,0-5.4-42.9,1.5,1.5,0,0,0-2.9.8Z" transform="translate(-25.84 -20.52)"/><path id="Path-24" data-name="Path" class="cls-2" d="M1203.1,749.8a121.1,121.1,0,0,0,20.6-20.5c1.2-1.5-.9-3.6-2.1-2.1a121.08,121.08,0,0,1-20.6,20.5C1199.5,748.9,1201.6,751,1203.1,749.8Z" transform="translate(-25.84 -20.52)"/><path id="Path-25" data-name="Path" class="cls-2" d="M1151,609.9a1027.53,1027.53,0,0,1,20.2,110c.2,1.9,3.2,1.9,3,0a1063.37,1063.37,0,0,0-20.3-110.8C1153.5,607.2,1150.6,608,1151,609.9Z" transform="translate(-25.84 -20.52)"/><path id="Path-26" data-name="Path" class="cls-2" d="M1139.1,644.3a74,74,0,0,1,22.3,20.5c1.1,1.6,3.7.1,2.6-1.5a77.11,77.11,0,0,0-23.3-21.5A1.48,1.48,0,1,0,1139.1,644.3Z" transform="translate(-25.84 -20.52)"/><path id="Path-27" data-name="Path" class="cls-2" d="M1177.4,665.2a189.44,189.44,0,0,0-8.7,27.7c-.4,1.9,2.4,2.7,2.9.8a193.33,193.33,0,0,1,8.7-27.7C1181,664.2,1178.1,663.4,1177.4,665.2Z" transform="translate(-25.84 -20.52)"/><path id="Path-28" data-name="Path" class="cls-2" d="M1138.9,710.6a331.26,331.26,0,0,1,32.3,10.9c1.8.7,2.6-2.2.8-2.9a340.55,340.55,0,0,0-32.3-10.9A1.5,1.5,0,0,0,1138.9,710.6Z" transform="translate(-25.84 -20.52)"/><path id="Path-29" data-name="Path" class="cls-2" d="M1279.8,639.2c-13.3,46.3-50.1,81.8-61.9,128.7a1.5,1.5,0,0,0,2.9.8c11.8-46.9,48.6-82.4,61.9-128.7C1283.3,638.1,1280.4,637.3,1279.8,639.2Z" transform="translate(-25.84 -20.52)"/><path id="Path-30" data-name="Path" class="cls-2" d="M1253,658.7c-2.5,16.2-5.1,32.4-7.6,48.6-.3,1.9,2.6,2.7,2.9.8,2.5-16.2,5.1-32.4,7.6-48.6C1256.2,657.6,1253.3,656.8,1253,658.7Z" transform="translate(-25.84 -20.52)"/><path id="Path-31" data-name="Path" class="cls-2" d="M1256,694.3a266.7,266.7,0,0,1,27.9-17.5c1.7-.9.2-3.5-1.5-2.6a237.16,237.16,0,0,0-27.9,17.5C1252.9,692.9,1254.4,695.5,1256,694.3Z" transform="translate(-25.84 -20.52)"/><path id="Path-32" data-name="Path" class="cls-2" d="M1227.3,752.3c9.1-10.7,22.1-16.1,34.9-21.2,1.8-.7,1-3.6-.8-2.9-13.2,5.3-26.7,10.9-36.2,22C1223.9,751.7,1226,753.8,1227.3,752.3Z" transform="translate(-25.84 -20.52)"/><path id="Path-33" data-name="Path" class="cls-2" d="M1082,761.8c3.7,23.4.6,46.9-2.9,70.2-3.4,22.9-6.8,45.9-10.2,68.8-.3,1.9,2.6,2.7,2.9.8,3.6-24.2,7.3-48.4,10.8-72.6,3.3-22.5,5.9-45.3,2.3-67.9-.4-2-3.2-1.2-2.9.7Z" transform="translate(-25.84 -20.52)"/><path id="Path-34" data-name="Path" class="cls-2" d="M1062.5,804.5a244.9,244.9,0,0,0,13.8,40.8c.8,1.8,3.4.2,2.6-1.5a255.43,255.43,0,0,1-13.5-40.1c-.5-1.8-3.4-1-2.9.8Z" transform="translate(-25.84 -20.52)"/><path id="Path-35" data-name="Path" class="cls-2" d="M1092.6,776.1a58.83,58.83,0,0,1-9.9,24.9c-1.1,1.6,1.5,3.1,2.6,1.5a61.25,61.25,0,0,0,10.2-25.7c.2-1.8-2.7-2.6-2.9-.7Z" transform="translate(-25.84 -20.52)"/><path id="Path-36" data-name="Path" class="cls-2" d="M1133.9,777.6a853.56,853.56,0,0,1-46.8,124.6c-.8,1.7,1.8,3.3,2.6,1.5a863.33,863.33,0,0,0,47.1-125.3c.5-1.8-2.4-2.6-2.9-.8Z" transform="translate(-25.84 -20.52)"/><path id="Path-37" data-name="Path" class="cls-2" d="M1126,775.8c-.4,9.7-.7,19.3-1.1,29-.1,1.9,2.9,1.9,3,0,.4-9.7.7-19.3,1.1-29C1129.1,773.9,1126.1,773.9,1126,775.8Z" transform="translate(-25.84 -20.52)"/><path id="Path-38" data-name="Path" class="cls-2" d="M1103.8,788.8c-5.4,22.6,0,46.2,3.2,68.8.3,1.9,3.2,1.1,2.9-.8-3.1-22-8.4-45.1-3.2-67.2A1.5,1.5,0,0,0,1103.8,788.8Z" transform="translate(-25.84 -20.52)"/><path id="Path-39" data-name="Path" class="cls-2" d="M1099.4,880.9a77.84,77.84,0,0,0,26.8-12.3c1.6-1.1.1-3.7-1.5-2.6a77.6,77.6,0,0,1-26.1,12C1096.7,878.4,1097.5,881.3,1099.4,880.9Z" transform="translate(-25.84 -20.52)"/><path id="Path-40" data-name="Path" class="cls-2" d="M265.9,587.7A1178,1178,0,0,1,284.6,753c.1,1.9,3.1,1.9,3,0a1171.28,1171.28,0,0,0-18.8-166.1c-.4-1.9-3.3-1.1-2.9.8Z" transform="translate(-25.84 -20.52)"/><path id="Path-41" data-name="Path" class="cls-2" d="M255,651.1a169.48,169.48,0,0,1,25.3,43.8c.7,1.8,3.6,1,2.9-.8a174.79,174.79,0,0,0-26-45.1C256,647.5,253.8,649.6,255,651.1Z" transform="translate(-25.84 -20.52)"/><path id="Path-42" data-name="Path" class="cls-2" d="M285,614.4a407.81,407.81,0,0,0-8.2,45.2c-.2,1.9,2.8,1.9,3,0a376.16,376.16,0,0,1,8.1-44.4c.4-1.9-2.5-2.7-2.9-.8Z" transform="translate(-25.84 -20.52)"/><path id="Path-43" data-name="Path" class="cls-2" d="M316.4,560.7a1276.06,1276.06,0,0,1-9.6,195.4c-.2,1.9,2.8,1.9,3,0a1276.06,1276.06,0,0,0,9.6-195.4C319.3,558.8,316.3,558.8,316.4,560.7Z" transform="translate(-25.84 -20.52)"/><path id="Path-44" data-name="Path" class="cls-2" d="M299.6,629.4a219.61,219.61,0,0,1,14.9,53.4c.3,1.9,3.2,1.1,2.9-.8a219.61,219.61,0,0,0-14.9-53.4C301.7,626.9,298.8,627.6,299.6,629.4Z" transform="translate(-25.84 -20.52)"/><path id="Path-45" data-name="Path" class="cls-2" d="M311.1,742.5a76,76,0,0,1,17-22c1.4-1.3-.7-3.4-2.1-2.1A77.15,77.15,0,0,0,308.5,741C307.6,742.7,310.2,744.2,311.1,742.5Z" transform="translate(-25.84 -20.52)"/><path id="Path-46" data-name="Path" class="cls-2" d="M306.8,571.8c2.6,8.3,5.5,16.4,8.7,24.5.7,1.8,3.6,1,2.9-.8-3.3-8-6.2-16.2-8.7-24.5C309.1,569.1,306.2,569.9,306.8,571.8Z" transform="translate(-25.84 -20.52)"/><path id="Path-47" data-name="Path" class="cls-2" d="M92,965.8A764.44,764.44,0,0,1,289,972c18.3,3,36.6,6.7,54.7,11,1.9.4,2.7-2.4.8-2.9a768.82,768.82,0,0,0-195.9-20.8c-18.9.5-37.8,1.6-56.6,3.5C90.1,962.9,90,965.9,92,965.8Z" transform="translate(-25.84 -20.52)"/><path id="Path-48" data-name="Path" class="cls-2" d="M680,994.5c.1-4.3,10.8-5.1,13.4-4.8a14.72,14.72,0,0,1,11,6.4c7.9,12.2-8.1,17.1-17.3,14.1-1.8-.6-2.6,2.3-.8,2.9,6.4,2.2,14.9,1.9,20.1-3.2,4.4-4.3,3.5-11.2.2-15.9a18.11,18.11,0,0,0-16.1-7.4c-4.4.3-13.4,2.3-13.5,7.9a1.5,1.5,0,0,0,3,0Z" transform="translate(-25.84 -20.52)"/><path id="Path-49" data-name="Path" class="cls-2" d="M679.5,992.9c6.4-9,19.8-13.1,29.8-16.3a137.35,137.35,0,0,1,34.3-6.2c1.9-.1,1.9-3.1,0-3a140.39,140.39,0,0,0-38.5,7.4c-10,3.5-21.8,7.6-28.2,16.6-1.1,1.6,1.5,3.1,2.6,1.5Z" transform="translate(-25.84 -20.52)"/><path id="Path-50" data-name="Path" class="cls-2" d="M745.1,970.8a18.06,18.06,0,0,1,15.4,14.4c.4,1.9,3.3,1.1,2.9-.8a21,21,0,0,0-18.3-16.6c-2-.2-1.9,2.8,0,3Z" transform="translate(-25.84 -20.52)"/><path id="Path-51" data-name="Path" class="cls-2" d="M748.8,967.7c11.2-7,22.1,2,24.4,13.3.4,1.9,3.3,1.1,2.9-.8-2.8-13.3-16-23.1-28.8-15.1C745.7,966.2,747.2,968.8,748.8,967.7Z" transform="translate(-25.84 -20.52)"/><path id="Path-52" data-name="Path" class="cls-2" d="M761.2,987.3a12.16,12.16,0,0,0,15-7.5c.7-1.8-2.2-2.6-2.9-.8a9.1,9.1,0,0,1-11.3,5.4c-1.9-.6-2.7,2.3-.8,2.9Z" transform="translate(-25.84 -20.52)"/><path id="Path-53" data-name="Path" class="cls-2" d="M679.1,991.4c-5.2,3-4.9,10.1-2.9,15,2.2,5.6,7.6,9.3,13.7,7.8,1.9-.5,1.1-3.3-.8-2.9-4.7,1.1-8.5-1.9-10.1-6.1-1.3-3.4-2.2-9,1.7-11.2a1.53,1.53,0,0,0-1.6-2.6Z" transform="translate(-25.84 -20.52)"/><path id="Path-54" data-name="Path" class="cls-2" d="M680.5,1002.8c-3-8.1,11.6-13,16.7-8.4,3.2,2.9,2.4,7.5-1,9.9a6.81,6.81,0,0,1-5.3,1.5c-6.7-1.3-1.2-9,2.1-4.6,1.2,1.5,3.8,0,2.6-1.5-3.9-5.1-12.5-2.5-10.9,4.4,1.7,7.6,12.5,4.9,15.8.2,4.6-6.6-.4-14.6-8-14.7-7.2-.1-18.1,5.1-14.8,13.9.6,1.9,3.5,1.1,2.8-.7Z" transform="translate(-25.84 -20.52)"/><path id="Path-55" data-name="Path" class="cls-2" d="M704.4,1010.6A205.64,205.64,0,0,0,764,987.7a1.5,1.5,0,0,0-1.5-2.6,204.73,204.73,0,0,1-58.9,22.6C701.7,1008.1,702.5,1011,704.4,1010.6Z" transform="translate(-25.84 -20.52)"/><path id="Path-56" data-name="Path" class="cls-2" d="M760.8,963c17-14.3,34-31.3,55.8-37.8a1.51,1.51,0,0,0-.8-2.9c-22.3,6.7-39.7,24-57.1,38.6-1.5,1.2.7,3.3,2.1,2.1Z" transform="translate(-25.84 -20.52)"/><path id="Path-57" data-name="Path" class="cls-2" d="M816.4,926.3a30.4,30.4,0,0,1,20.5,25.6c.2,1.9,3.2,1.9,3,0a33.34,33.34,0,0,0-22.7-28.5C815.4,922.8,814.6,925.7,816.4,926.3Z" transform="translate(-25.84 -20.52)"/><path id="Path-58" data-name="Path" class="cls-2" d="M775.9,982.7q30.75-13.65,61.1-28.5c1.7-.8.2-3.4-1.5-2.6-20.2,9.9-40.6,19.3-61.1,28.5C772.6,980.9,774.2,983.5,775.9,982.7Z" transform="translate(-25.84 -20.52)"/><path id="Path-59" data-name="Path" class="cls-2" d="M747.9,969.1c.7-.5,1.4-.9,2-1.4a1.53,1.53,0,1,0-1.6-2.6c-.7.5-1.4.9-2,1.4a1.49,1.49,0,0,0-.5,2.1A1.58,1.58,0,0,0,747.9,969.1Z" transform="translate(-25.84 -20.52)"/><path id="Path-60" data-name="Path" class="cls-2" d="M451.2,944.3a235.11,235.11,0,0,0,15,65.2c.7,1.8,3.6,1,2.9-.8a230.34,230.34,0,0,1-14.9-64.4c-.1-1.9-3.1-1.9-3,0Z" transform="translate(-25.84 -20.52)"/><path id="Path-61" data-name="Path" class="cls-2" d="M446,989.2a63,63,0,0,1,16.6,12.5c1.3,1.4,3.4-.7,2.1-2.1a62.1,62.1,0,0,0-17.2-12.9c-1.7-1-3.2,1.6-1.5,2.5Z" transform="translate(-25.84 -20.52)"/><path id="Path-62" data-name="Path" class="cls-2" d="M467.9,974.2a31.1,31.1,0,0,0-5.5,20.9c.2,1.9,3.2,1.9,3,0a29.25,29.25,0,0,1,5.1-19.4C471.5,974.2,468.9,972.7,467.9,974.2Z" transform="translate(-25.84 -20.52)"/><path id="Path-63" data-name="Path" class="cls-2" d="M476.8,965.9a113.8,113.8,0,0,1,2.5,37.7c-.2,1.9,2.8,1.9,3,0a118.9,118.9,0,0,0-2.7-38.5C479.3,963.3,476.4,964.1,476.8,965.9Z" transform="translate(-25.84 -20.52)"/><path id="Path-64" data-name="Path" class="cls-2" d="M472.4,970.3c2.4,4.6,4.8,9.3,7.2,13.9.9,1.7,3.5.2,2.6-1.5-2.4-4.6-4.8-9.3-7.2-13.9C474.1,967.1,471.5,968.6,472.4,970.3Z" transform="translate(-25.84 -20.52)"/></g><circle id="Oval" class="cls-3" cx="505.76" cy="306.28" r="16.9"/><circle id="Oval-2" data-name="Oval" class="cls-4" cx="1050.36" cy="671.08" r="12.2"/><circle id="Oval-3" data-name="Oval" class="cls-4" cx="1068.16" cy="654.68" r="5"/><circle id="Oval-4" data-name="Oval" class="cls-4" cx="259.46" cy="347.48" r="8.6"/><circle id="Oval-5" data-name="Oval" class="cls-3" cx="291.86" cy="365.28" r="9.4"/><circle id="Oval-6" data-name="Oval" class="cls-3" cx="588.16" cy="578.58" r="5.2"/><circle id="Oval-7" data-name="Oval" class="cls-3" cx="993.66" cy="84.28" r="9"/><circle id="Oval-8" data-name="Oval" class="cls-3" cx="1033.66" cy="117.48" r="6.8"/><circle id="Oval-9" data-name="Oval" class="cls-5" cx="1026.66" cy="626.08" r="7"/><circle id="Oval-10" data-name="Oval" class="cls-3" cx="558.16" cy="88.78" r="4.5"/><path id="Path-65" data-name="Path" class="cls-3" d="M473.1,489.4c-1.2-1.6,0-4.4,1.5-5.3,1.9-1.2,4.5-.6,6.5-.1s4,1.5,6,2a13.18,13.18,0,0,0,8.1,0,7.75,7.75,0,0,0,4.8-6.1c.6-2.4.4-5.4,2.4-7.3s4.9-2.1,7.4-2.1c6.4.1,12.7,3.7,16.2-3.7,1.8-4,2.1-8.4,6.5-10.7,5.3-2.8,11.7-.4,16.9,1.4,1.8.6,2.6-2.2.8-2.9-7.9-2.8-19.3-5.4-24.2,3.9a51,51,0,0,0-1.9,5c-.6,1.5-1.3,4.1-2.9,4.8-1.8.8-5.1-.1-7-.4-3.7-.5-7.6-.9-11.2.7s-4.8,4.6-5.5,8.4c-1.8,10.1-9.8,5.4-16.4,3.8-3.6-.9-7.5-.6-10,2.4-1.9,2.3-2.4,5.2-.6,7.6,1.1,1.7,3.7.2,2.6-1.4Z" transform="translate(-25.84 -20.52)"/><path id="Path-66" data-name="Path" class="cls-3" d="M496.3,505.6c1-5.8,5.5-9,11.3-8.7,3.2.1,6.7,1.2,9.9.2a7.61,7.61,0,0,0,4.8-4.3c2.1-4.6,2.1-8.5,6.6-11.9a15,15,0,0,1,12.9-2.7c2.9.7,6,2,9,.9,3.2-1.2,4.7-4.9,7.6-6.8,3.7-2.4,8.2-3.2,12.4-3.9,1.9-.3,1.1-3.2-.8-2.9a43.12,43.12,0,0,0-11.3,3.2,18,18,0,0,0-4.3,2.9c-2.6,2.4-3.7,4.8-8,4.6-3.7-.1-6.6-1.9-10.5-1.4a19.5,19.5,0,0,0-9.5,4.2,17.25,17.25,0,0,0-5.5,8c-1.1,3.3-1.8,7.3-6.3,7.4-2.1.1-4.2-.4-6.3-.5-7.3-.6-13.6,3.4-14.9,10.8-.3,2,2.5,2.8,2.9.9Z" transform="translate(-25.84 -20.52)"/><path id="Path-67" data-name="Path" class="cls-3" d="M1023.4,477c6.5,1.2,9.9,9.7,17.3,6.9,4.3-1.6,6.9-5.6,11.9-5.7,5.5-.1,8,4.5,12.7,6,7.8,2.5,14-6.1,21.5-4.7,6.8,1.3,11,9.5,18.6,7.3a1.5,1.5,0,0,0-.8-2.9c-6.7,1.9-11.9-7.4-18.8-7.6-3.1-.1-6.1,1.2-8.8,2.4-5.7,2.6-9.3,4.2-14.8.1s-11.8-4.8-17.7-.9c-1.8,1.2-3.2,2.5-5.3,3.1-3.1.9-5.1-.7-7.4-2.6s-4.6-3.8-7.7-4.4c-1.8-.3-2.6,2.6-.7,3Z" transform="translate(-25.84 -20.52)"/><path id="Path-68" data-name="Path" class="cls-3" d="M1044,467.1c5.1,4.1,11-1.6,16.4,1.8,5.1,3.2,8,4.2,13.8,2.2,3.2-1.1,6.4-2.7,9.9-2.2,2.8.5,5,2.6,7.9,2.9,2.7.3,5-1.2,7.4-2.3a14,14,0,0,1,14,1c1.6,1.1,3.1-1.5,1.5-2.6a16.86,16.86,0,0,0-15.4-1.8c-1.6.6-3.5,2.1-5.2,2.4-2.5.4-4.5-.7-6.7-1.7a11.6,11.6,0,0,0-6.1-1c-2.8.3-5.4,1.5-8.1,2.3-4.3,1.4-7.1,1.2-10.9-1.5a9.94,9.94,0,0,0-6.6-2.2c-3,.1-7.1,2.6-9.8.5-1.5-1.1-3.6,1-2.1,2.2Z" transform="translate(-25.84 -20.52)"/><path id="Path-69" data-name="Path" class="cls-2" d="M714.1,556.8c.4-5.3,6.5-5.1,9.7-3.3A20,20,0,0,1,728,557c2.3,2.2,4.5,4.7,7.4,6.1,5.4,2.4,8.7-.5,13.2-3.1,14.2-8,24.7,18,39,8.9a.76.76,0,0,0-.8-1.3c-9.5,6.1-18.4-5.7-26.3-9.2a13.81,13.81,0,0,0-8.2-1.4c-4.1.7-6.8,4.3-10.7,5.3-9.2,2.5-12.7-10.5-21-11.4-4-.5-7.8,1.9-8.1,6,0,.9,1.5.9,1.6-.1Z" transform="translate(-25.84 -20.52)"/><path id="Path-70" data-name="Path" class="cls-2" d="M967.9,614.1c1.8-7.1,7.9-10.8,15-10.2,3.6.3,6.5.2,8.9-2.9,2.8-3.7,2.9-8.7,6.3-12.2,4-4,10.1-5.2,15.5-6.2.9-.2.5-1.6-.4-1.4-5,.9-10.4,2-14.5,5.1-3.9,3-4.9,7.1-6.8,11.4-2.5,5.5-6.3,4.5-11.4,4.6a14,14,0,0,0-5.7,1.3,15.36,15.36,0,0,0-8.4,10.2.77.77,0,0,0,1.5.3Z" transform="translate(-25.84 -20.52)"/><path id="Path-71" data-name="Path" class="cls-2" d="M1002.1,608.5a12.12,12.12,0,0,1,8-11.6c3.5-1.2,7.2.2,10.7-1,5.6-2,8.4-9,14.7-9.3,1-.1,1-1.6,0-1.5-3.1.2-5.4,1.6-7.7,3.6-1.8,1.6-3.4,3.5-5.5,4.7-3.3,2.1-6.3,1.2-9.8,1.5-7,.6-12,6.8-12,13.6.1,1,1.6,1,1.6,0Z" transform="translate(-25.84 -20.52)"/><path id="Path-72" data-name="Path" class="cls-4" d="M634,174.9c1.6,4.8,5.1,11.1,11.1,8.1,3.6-1.8,5.3-5.7,9.6-6.5a11.48,11.48,0,0,1,12.1,5.8,1.48,1.48,0,0,0,2.7-.4c3-8.7,14-9.4,18.4-1.5.9,1.7,3.5.2,2.6-1.5-5.7-10.4-20-8.9-23.8,2.2a25.12,25.12,0,0,0,2.7-.4,14.09,14.09,0,0,0-13.3-7.4,12.14,12.14,0,0,0-6.9,2.3c-1.3.9-2.3,2.6-3.7,3.4s-5.8.2-7-1c-.9-.9-1.3-2.8-1.6-3.9-.6-1.8-3.5-1-2.9.8Z" transform="translate(-25.84 -20.52)"/><path id="Path-73" data-name="Path" class="cls-4" d="M677.8,161.7c1.9,1.5,3.7,1.5,6,.8,3.1-.9,5.1-2.8,7.8.7.9,1.2,1.2,2.8,2.4,3.9,2.2,2.2,5.4,2.5,8.4,2.2,3.5-.3,13.5-2.7,13,3.8-.1,1.9,2.9,1.9,3,0,.7-9.2-11.4-6.9-16.7-6.7-3.9.1-5.7-1.5-7.5-4.7a7.09,7.09,0,0,0-3.1-3.3c-3.4-1.5-8.6,3.1-11.2,1.1-1.5-1.1-3.7,1-2.1,2.2Z" transform="translate(-25.84 -20.52)"/><path id="Path-74" data-name="Path" class="cls-4" d="M364.4,706.1a12.14,12.14,0,0,1,1-10.2c2-3.2,5.1-4.2,8-6.1,3.7-2.5,5.1-5.9,5.7-10.2a54.31,54.31,0,0,1,.9-6.9c1.1-4,3.6-5.8,7.3-7.4,3.4-1.4,6.5-2.6,8.7-5.7,1.1-1.6-1.5-3.1-2.6-1.5-3.2,4.4-9.5,4.3-13.3,8s-3.2,9.2-4.1,14c-1.3,7.3-7.9,7.7-12,12.6a14.89,14.89,0,0,0-2.5,14.2c.6,1.8,3.5,1,2.9-.8Z" transform="translate(-25.84 -20.52)"/><path id="Path-75" data-name="Path" class="cls-4" d="M365.8,672.9c7.4-4.4,1.2-15.2,8.7-19.4,4-2.3,7.6-3.3,10.8-6.9s5.1-7.7,7.1-11.9c.8-1.7-1.8-3.3-2.6-1.5-2,4.2-4,8.4-7.2,11.8-3.4,3.7-8,4.1-11.7,7.1-5.5,4.5-1.1,14.8-6.7,18.2-1.6,1-.1,3.5,1.6,2.6Z" transform="translate(-25.84 -20.52)"/><path id="Path-76" data-name="Path" class="cls-4" d="M772.3,547.2a9.19,9.19,0,0,1-10-10.8c1-5.8,6.5-10.3,12.3-10.7,4.7-.3,10,1.6,12.2,6.1,2.4,4.9.2,11.6-4.9,13.5-1.8.7-1,3.6.8,2.9a13,13,0,0,0,7.7-15.4c-1.9-7.4-10-11-17.2-10-7,1-13.4,6.8-14.1,14-.7,7.4,5.6,14.1,13.1,13.3C774.2,550,774.2,547,772.3,547.2Z" transform="translate(-25.84 -20.52)"/><path id="Path-77" data-name="Path" class="cls-6" d="M317.3,877.4a217.63,217.63,0,0,1,28.8-26c11.1-8.4,20.1-13.5,31.5-19.9,16.3-9.1,36.6-20.2,60.3-32.9,36.4-3.4,67-5.8,89.8-7.5,42.4-3.2,110.5-8.3,188.5-10.3,16.1-.4,31.5-.7,31.5-.7,43.6-.8,54.6-.1,100.1-.7,33.4-.4,33.2-.8,51.4-.7,27.4.2,49.9,1.2,65.1,2.1,9.1.7,27.6,2.1,45.9,4.1a115.07,115.07,0,0,1,15.8,2.7,100.86,100.86,0,0,1,19.2,6.9c-5.4,8.2-10.9,16.4-16.4,24.7C1010.7,846,992.3,871.5,974,896a74,74,0,0,1-15.1,6.9,79.84,79.84,0,0,1-31.5,3.4c-18-1.3-61.7-.5-125.4,1.4l-85-2.1c-8.2,12.6-16.4,25.1-24.7,37.7q-82.2-4.5-164.5-8.9c11-12.1,21.9-24.2,32.9-36.3q-121.8-10.5-243.4-20.7Z" transform="translate(-25.84 -20.52)"/><path id="Path-78" data-name="Path" class="cls-4" d="M374.8,859.8q74.1,5,148,11.5c1.9.2,1.9-2.8,0-3q-73.95-6.6-148-11.5c-1.9-.1-1.9,2.9,0,3Z" transform="translate(-25.84 -20.52)"/><path id="Path-79" data-name="Path" class="cls-4" d="M755.2,884.7q77.4-.6,154.9,3.3c1.9.1,1.9-2.9,0-3q-77.4-3.9-154.9-3.3A1.5,1.5,0,0,0,755.2,884.7Z" transform="translate(-25.84 -20.52)"/><path id="Path-80" data-name="Path" class="cls-4" d="M464.2,829.5c25,4.4,50.4,3.8,75.7,3.6,26.8-.2,53.6.4,80.4,1.3,52.9,1.9,105.8,5.4,158.7,7.6,30.4,1.3,60.9,2.1,91.3,2.1a1.5,1.5,0,0,0,0-3c-106,.3-211.6-10.9-317.5-11-29.3,0-58.8,1.7-87.8-3.4C463.2,826.3,462.3,829.2,464.2,829.5Z" transform="translate(-25.84 -20.52)"/><path id="Path-81" data-name="Path" class="cls-4" d="M705.2,808.1q112.8.15,225.5,6.6c1.9.1,1.9-2.9,0-3q-112.65-6.45-225.5-6.6A1.5,1.5,0,0,0,705.2,808.1Z" transform="translate(-25.84 -20.52)"/><path id="Path-82" data-name="Path" class="cls-4" d="M1044.2,793.6q-33.3,50.85-69.7,99.3c-1.2,1.5,1.4,3,2.6,1.5,24.3-32.3,47.6-65.5,69.7-99.3C1047.9,793.5,1045.3,792,1044.2,793.6Z" transform="translate(-25.84 -20.52)"/><path id="Path-83" data-name="Path" class="cls-4" d="M343,856.5c30.8-21.3,62-42.7,96.8-57,1.8-.7,1-3.6-.8-2.9-35.1,14.4-66.5,35.9-97.6,57.3C339.9,855,341.4,857.6,343,856.5Z" transform="translate(-25.84 -20.52)"/><path id="Path-84" data-name="Path" class="cls-4" d="M436.9,799.9Q556,789,675.4,784.2c79.6-3.1,159.3-4.3,239-3.1,22.3.3,44.6.9,66.8,2.9,21.4,1.9,43.8,4.1,63.8,12.4,1.8.7,2.6-2.2.8-2.9-17-7.1-35.7-9.4-53.9-11.4-19.9-2.2-39.9-3.2-59.9-3.7-39.9-1-79.9-.9-119.8-.5q-120,1.05-239.9,8.6-67.8,4.2-135.5,10.5c-1.9.1-1.9,3.1.1,2.9Z" transform="translate(-25.84 -20.52)"/><path id="Path-85" data-name="Path" class="cls-4" d="M719,907.2c74.5,2.5,149,2.6,223.4-.2,12.8-.5,27.1-2,35-13.4,1.1-1.6-1.5-3.1-2.6-1.5-7.9,11.3-23.2,11.6-35.6,12-17.1.5-34.2,1.2-51.4,1.5q-54,1-108,.1c-20.3-.3-40.6-.9-60.9-1.5-1.8-.1-1.8,2.9.1,3Z" transform="translate(-25.84 -20.52)"/><path id="Path-86" data-name="Path" class="cls-4" d="M341.5,853.8l-26.4,23.1c-1.1.9-.1,2.5,1.1,2.6,80.9,7,161.8,14,242.7,19.4,1.9.1,1.9-2.9,0-3-81-5.5-161.9-12.4-242.7-19.4.4.9.7,1.7,1.1,2.6L343.7,856a1.56,1.56,0,0,0-2.2-2.2Z" transform="translate(-25.84 -20.52)"/><path id="Path-87" data-name="Path" class="cls-4" d="M592.9,866.8a713.63,713.63,0,0,0-65.6,65.7c-1.3,1.4.8,3.6,2.1,2.1A713.65,713.65,0,0,1,595,868.9c1.5-1.3-.6-3.4-2.1-2.1Z" transform="translate(-25.84 -20.52)"/><path id="Path-88" data-name="Path" class="cls-4" d="M594,868.9a600.33,600.33,0,0,1,146.1,3.7c1.9.3,2.7-2.6.8-2.9A596.84,596.84,0,0,0,594,865.9c-1.9.2-1.9,3.2,0,3Z" transform="translate(-25.84 -20.52)"/><path id="Path-89" data-name="Path" class="cls-4" d="M738.6,871.6c-16.4,23.5-32.9,47-49.3,70.5-1.1,1.6,1.5,3.1,2.6,1.5,16.4-23.5,32.9-47,49.3-70.5,1.1-1.6-1.5-3.1-2.6-1.5Z" transform="translate(-25.84 -20.52)"/><path id="Path-90" data-name="Path" class="cls-4" d="M527.7,936q81,4.05,162.1,8c1.9.1,1.9-2.9,0-3q-81-4.05-162.1-8C525.8,932.9,525.8,935.9,527.7,936Z" transform="translate(-25.84 -20.52)"/><path id="Path-91" data-name="Path" class="cls-4" d="M569.6,917.2c8.4,1.5,16.7,2.9,25.1,4.4,1.9.3,2.7-2.6.8-2.9-8.4-1.5-16.7-2.9-25.1-4.4C568.5,914,567.7,916.9,569.6,917.2Z" transform="translate(-25.84 -20.52)"/><path id="Path-92" data-name="Path" class="cls-4" d="M589.1,908a193.06,193.06,0,0,0-14.4,16.8c-1.2,1.5,1.4,3,2.6,1.5a213.7,213.7,0,0,1,14-16.2c1.2-1.3-.9-3.5-2.2-2.1Z" transform="translate(-25.84 -20.52)"/><path id="Path-93" data-name="Path" class="cls-4" d="M603.2,909.5c.1-5.2,4-8.6,9.1-8.5,2.5,0,4.8.8,7.3.4a14.65,14.65,0,0,0,10.7-7.6c1.5-2.7,1.9-5.8,4.2-8a15.43,15.43,0,0,1,9.4-3.8,22,22,0,0,1,9.5,1c2.5,1,5.1,2.9,5.2,5.9.1,2.3-1.3,4.7-3.9,4.8.1,1,.3,2,.4,2.9,2.7-.4,5.7,2.5,6.5,4.8a8.89,8.89,0,0,1,.4,3.6,12.6,12.6,0,0,1-3.1,7.3,13.28,13.28,0,0,1-6.4,4.3c-2.2.6-2.6.7-4.2-1.1-1.8-2.1-1-2.5.9-4.1,8.6-7.2,15.7,2.2,24.5,2.5,6,.2,11.7-3.5,12.9-9.6.6-3-.3-5.7-1.8-8.4-1.7-3-2.7-3.6-2-7.3q-.75-3.3,2.1-3.3a2.9,2.9,0,0,1,3.1.2c2.4.7,3.8,2.3,5.3,4.3,1.1,1.5,3.7.1,2.6-1.5-3.1-4.3-8.5-8.4-13.9-5.2-5.1,3-3.3,8.3-.8,12.4,2.6,4.4,4.4,9-.2,13-5.2,4.5-11.1,1.5-16.2-1s-11-2.8-16,.5c-3,1.9-7.4,6.9-4.1,10.5,3.6,3.8,11.1.6,14.3-2,4.1-3.3,6.8-8.8,6-14.2s-5.1-9.6-10.6-8.7c-1.7.3-1.3,3,.4,2.9,6.1-.1,8.7-7.5,5.5-12.2-4.4-6.5-15.4-6.6-22-4.2a14.91,14.91,0,0,0-8,6.4c-1.3,2.2-1.7,4.9-3.1,7a12.27,12.27,0,0,1-10,5.1c-4.6-.1-8.2-1.4-12.2,1.6a11.37,11.37,0,0,0-4.6,9.4c-.2,1.9,2.8,1.9,2.8-.1Z" transform="translate(-25.84 -20.52)"/><path id="Path-94" data-name="Path" class="cls-3" d="M763,346.6c-.2,23.9-.5,47.7-.7,71.6q84.3-2.4,168.5-4.9c11.5,8.9,22.9,17.8,34.4,26.7-3-17.6-6.1-35.1-9.1-52.7-.9-14.5-1.9-29-2.8-43.5q-95.1,1.35-190.3,2.8Z" transform="translate(-25.84 -20.52)"/><path id="Path-95" data-name="Path" class="cls-3" d="M756.9,169.2c-1.9,34.6-3.8,69.1-5.6,103.7-9.9,12.3-19.8,24.7-29.7,37l35.4-9.6,210.6-7.2q-2.85-62.25-5.6-124.6-102.75.3-205.1.7Z" transform="translate(-25.84 -20.52)"/><path id="Path-96" data-name="Path" class="cls-4" d="M506.7,754.3c-2.3,15.6-4.6,31.3-6.9,46.9-42.3,12.9-63,21.3-62.2,25,1,4.6,33.6,2.4,98-6.6.9-22.4,1.9-44.7,2.8-67.1l-31.7,1.8Z" transform="translate(-25.84 -20.52)"/><path id="Path-97" data-name="Path" class="cls-6" d="M527.2,611.2c-2.1,1.6-3.3,3.4-7.8,12.1-3.6,6.9-5.3,10.4-6.5,13-8.1,18.4-16,47.3-16,47.3-6.3,22.9-9.5,34.3-11.7,46.4a353.77,353.77,0,0,0-5.2,42.1,115,115,0,0,0,69,8.7c2-14.1,4.8-29.4,8.7-45.5,3.4-14.4,7.3-27.7,11.3-39.9,4.3,2.7,10.6,6.9,18.2,12.1,24.9,17.3,32.7,25.7,47.3,35.1a171.68,171.68,0,0,0,43.4,20,48.53,48.53,0,0,0,27.3-13c15.8-15.5,14.2-36.5,13.9-39.5a343.51,343.51,0,0,0-27.8-26.5c-21-17.8-39.1-28.7-52-36.4-10.4-6.2-22-11.9-45.1-23.4,0,0-27.1-13.4-52-15.6-4.4-.4-10.3-.6-15,3Z" transform="translate(-25.84 -20.52)"/><path id="Path-98" data-name="Path" class="cls-4" d="M481.2,770.8a471,471,0,0,1,14.3-77.4q5.1-18.6,11.7-36.9c4.4-12.1,8.8-24.8,15-36.2,3.7-6.8,8.7-9.1,16.2-9.4a72.4,72.4,0,0,1,20.2,2.2c12.1,2.8,23.8,7.5,35.2,12.4a367.39,367.39,0,0,1,61.9,33.7,373.23,373.23,0,0,1,61.2,51.7c1.3,1.4,3.5-.7,2.1-2.1A377.87,377.87,0,0,0,595.3,623c-11.4-4.9-23-9.5-35.1-12.5-10-2.4-25.5-5.7-34.6.8-3.9,2.8-6.1,7.3-8.1,11.6-2.6,5.7-5,11.5-7.4,17.3-5.3,13.1-10,26.4-14.1,40a473.32,473.32,0,0,0-17.9,90.6c-.1,1.9,2.9,1.9,3.1,0Z" transform="translate(-25.84 -20.52)"/><path id="Path-99" data-name="Path" class="cls-4" d="M480.6,772.2a92.62,92.62,0,0,0,67.8,9.2,1.5,1.5,0,0,0-.8-2.9,89.07,89.07,0,0,1-65.5-8.9,1.5,1.5,0,0,0-1.5,2.6Z" transform="translate(-25.84 -20.52)"/><path id="Path-100" data-name="Path" class="cls-4" d="M551.4,779.2a439,439,0,0,1,18.9-83.9c.6-1.8-2.3-2.6-2.9-.8a447.24,447.24,0,0,0-19,84.7c-.2,1.9,2.8,1.9,3,0Z" transform="translate(-25.84 -20.52)"/><path id="Path-101" data-name="Path" class="cls-4" d="M561,692.4c40.1,20.4,70,59.6,115.1,70.1,1.9.4,2.7-2.5.8-2.9-44.8-10.5-74.6-49.5-114.4-69.8-1.7-.9-3.2,1.7-1.5,2.6Z" transform="translate(-25.84 -20.52)"/><path id="Path-102" data-name="Path" class="cls-7" d="M515.2,782.4q15.3-48.6,33.7-99c2.9-8,5.9-15.9,8.9-23.8,20.9,11,41.9,22,62.8,33q43.8,23.1,87.6,46.5c-.8,3.7-3.7,13.8-12.8,19.2-6.8,4-14.3,3.7-22.3,2.1-24.8-5-40.4-20-71.6-43.3-7.1-5.3-18-13.3-31.9-22.7-2.7,7.6-5.3,15.5-7.8,23.8A438.06,438.06,0,0,0,548,781a78.78,78.78,0,0,1-22.3,2.5,97.12,97.12,0,0,1-10.5-1.1Z" transform="translate(-25.84 -20.52)"/><path id="Path-103" data-name="Path" class="cls-7" d="M567,693.3c-2.5-1-12.6,17.8-15.6,23.4a396.39,396.39,0,0,0-27,63.5,28.56,28.56,0,0,0,7.1,2.1,30.8,30.8,0,0,0,16.7-1.8c5.3-27.8,10.7-49.9,14.9-65.6C565.7,705.1,568.8,694.1,567,693.3Z" transform="translate(-25.84 -20.52)"/><path id="Path-104" data-name="Path" class="cls-4" d="M410.5,766.4c-6.8,17.8-13.7,35.7-20.5,53.5-39.9,13.3-59.3,22.1-58.4,26.4q1.65,7.5,85.8-3.1c6.7-21.7,13.4-43.3,20.2-65C428.5,774.3,419.5,770.4,410.5,766.4Z" transform="translate(-25.84 -20.52)"/><path id="Path-105" data-name="Path" class="cls-6" d="M467.8,592.5a53.67,53.67,0,0,0-14.3,15.2c-9.6,14.5-14.5,21.8-17.8,28.2a372.8,372.8,0,0,0-18.2,40.8c-9.5,25.1-14.3,45.5-18.7,63.8-3.2,13.7-5.5,25.1-6.9,33a82.38,82.38,0,0,0,17.3,15.6A85.79,85.79,0,0,0,450,803c7.3-21.1,14.2-38.9,20-52.9,6.1-15,10.6-25,18.7-36.4A147.35,147.35,0,0,1,504.3,695a285.72,285.72,0,0,0,19.5,24.3c10.5,11.7,29.7,32.8,60.7,51.2,25.1,14.9,44.8,20.2,64.6,25.6,20.6,5.6,26.9,5,31.7,2.2,19.7-11.6,9.7-57.9,9.1-60.7a510.74,510.74,0,0,1-43.4-37.3c-8.8-8.5-18.7-18.8-36-34.3-4.6-4.1-9.4-8.4-16-13.9-3.1-2.6-14.6-12-34.3-25.6,0,0-25-17.3-49.4-29.9a113.08,113.08,0,0,0-16.9-6.5c-8.9-2.7-12.6-2.9-16-2.2-1.2.1-4.7.9-10.1,4.6Z" transform="translate(-25.84 -20.52)"/><path id="Path-106" data-name="Path" class="cls-4" d="M464.9,592.8c-44.1,49-62.7,114.2-74.9,177.5-.4,1.9,2.5,2.7,2.9.8C405,708.3,423.3,643.5,467,594.9c1.4-1.4-.8-3.6-2.1-2.1Z" transform="translate(-25.84 -20.52)"/><path id="Path-107" data-name="Path" class="cls-4" d="M391,773.8a95.41,95.41,0,0,0,56.7,31.8c1.9.3,2.7-2.6.8-2.9a92.9,92.9,0,0,1-55.4-31C391.9,770.2,389.8,772.3,391,773.8Z" transform="translate(-25.84 -20.52)"/><path id="Path-108" data-name="Path" class="cls-4" d="M450.6,804.2a469.16,469.16,0,0,1,23-58.2c8.2-17.1,16.6-36.8,31.3-49.4,1.5-1.3-.7-3.4-2.1-2.1-14.9,12.8-23.5,32.7-31.7,50a480.63,480.63,0,0,0-23.3,58.9c-.7,1.8,2.2,2.6,2.8.8Z" transform="translate(-25.84 -20.52)"/><path id="Path-109" data-name="Path" class="cls-4" d="M494.3,683.8c41.1,56.6,97.1,107.4,169.1,117,1.9.3,1.9-2.7,0-3-70.8-9.4-126-59.8-166.5-115.5C495.7,680.8,493.1,682.3,494.3,683.8Z" transform="translate(-25.84 -20.52)"/><path id="Path-110" data-name="Path" class="cls-4" d="M467.4,594.8c16.5-12.1,37.5,1.3,52.7,9.5a480.94,480.94,0,0,1,45.5,27.8,489.43,489.43,0,0,1,81.3,70.8c1.3,1.4,3.4-.7,2.1-2.1-40.2-43.7-88.5-80.4-141.9-106.5-12.8-6.3-28.5-11.3-41.2-2-1.5,1,0,3.6,1.5,2.5Z" transform="translate(-25.84 -20.52)"/><path id="Path-111" data-name="Path" class="cls-8" d="M414.6,789.2c6.6-13.6,18.2-37.6,32.5-67.9,27.5-57.9,32.1-69.1,44.7-73.4,21.8-7.3,42.5,14.6,90.4,48.8A892.09,892.09,0,0,0,693,764.3c.9,5.2,2.8,19.4-5.5,28.4-3.7,3.9-12.1,9.9-38.1,5.5-10-1.7-56.8-10.6-113.6-67.2a350,350,0,0,1-31.9-36.4,194.77,194.77,0,0,0-12.1,15.9c-8.4,12.4-14,23.7-27,55-4.2,10-9.4,22.8-15.2,37.7a43.53,43.53,0,0,1-19-3.1A42.11,42.11,0,0,1,414.6,789.2Z" transform="translate(-25.84 -20.52)"/><path id="Path-112" data-name="Path" class="cls-7" d="M496,681.2c3.9,2,9.6,5,16.3,9,42.3,25.2,43.3,40.5,74.8,59.2,24.5,14.5,33.7,11.1,58.9,30.1a183,183,0,0,1,21.8,19.4,178,178,0,0,1-38.4-7.6c-20-6.3-33.8-14.6-44-20.8A268.32,268.32,0,0,1,535.9,731,281,281,0,0,1,496,681.2Z" transform="translate(-25.84 -20.52)"/><path id="Path-113" data-name="Path" class="cls-7" d="M500.5,695c-1.4-1.8-11.9,2.7-21.1,9.7-16.6,12.5-21.3,27-36.7,55.4-4.5,8.3-11.3,20.4-20.4,34.6,8.9,3.6,17.8,7.2,26.7,10.7,2-5.4,17.3-46.3,28.7-71,3.7-7.9,5.7-12.3,9.3-18.3,8-13.2,14.8-19.4,13.5-21.1Z" transform="translate(-25.84 -20.52)"/><path id="Path-114" data-name="Path" class="cls-6" d="M915.5,523.3c2.6,1.4,2.5,2.9,5.8,5.7,2.7,2.3,3.7,2,4.8,3.9a12.44,12.44,0,0,1,1.4,6.1,9.12,9.12,0,0,1,5.2,1.8,14.6,14.6,0,0,1,5.8,9.6,17.91,17.91,0,0,1-.7,9.2,10.49,10.49,0,0,1,3.4,5.7c.8,3.6-.3,6.9-1.7,10.5-4.1,10.1-7.8,14.3-12,22.8a97.94,97.94,0,0,0-4.8,11.4,132.75,132.75,0,0,0,.7,17.5,139.35,139.35,0,0,0,4.1,21.9c3.5,13,9.7,43.4,10.3,71.3.3,14.3.6,37.2-9.3,60.6-3.7,8.8-9.2,21.2-20.3,26.3-1.8.8-14.7,6.7-23.7-2.6a24.75,24.75,0,0,1-5.8-10.5,39.77,39.77,0,0,1-.3-6.6c.3-12.1,5.9-20.8,7.9-24.1,6.8-11.5,8.9-24.3,12.4-46,2.2-13.4,1.7-25,.7-47.8-.7-15.6-2.2-36.7-5.5-61.8a9.61,9.61,0,0,1-5.5-3.9c-2.4-3.7-1-7.1-2.8-13.6-1.4-4.9-2.5-4-4.8-10.5-1.7-4.7-3.3-9-2.4-14,.2-1,1.1-6.9,4.5-8.3,4.3-1.9,9.1,4.9,10.3,6.6a26.84,26.84,0,0,1,4.1,9.2,103,103,0,0,0,7.2-14.5c1.1-2.6,2-5.1,2.8-7.5-.4-2.2-.9-5.4-1.3-9.3-.5-5.2-.7-7.9-.1-11.3.4-2.3,1.4-7.4,4.5-8.8,1.9-.7,4,.4,5.1,1Z" transform="translate(-25.84 -20.52)"/><path id="Path-115" data-name="Path" class="cls-4" d="M925.3,606.6c4.9-8.8,10.7-17.6,14.7-26.9,2.9-6.8,4.1-15-.4-21.4-1.1-1.6-3.7-.1-2.6,1.5,5.2,7.3,1.7,16.4-2.1,23.5-4,7.3-8.1,14.5-12.2,21.8A1.5,1.5,0,0,0,925.3,606.6Z" transform="translate(-25.84 -20.52)"/><path id="Path-116" data-name="Path" class="cls-4" d="M932.4,574.9c7.3-9.7,13.2-33.1-3.8-36.9-1.9-.4-2.7,2.5-.8,2.9,14.8,3.3,8.1,24.3,2,32.5-1.1,1.5,1.5,3,2.6,1.5Z" transform="translate(-25.84 -20.52)"/><path id="Path-117" data-name="Path" class="cls-4" d="M924.5,566c6.9-9.9,7.4-23.5,2.1-34.2-.9-1.7-3.4-.2-2.6,1.5,4.8,9.8,4.2,22.2-2.1,31.2C920.8,566,923.4,567.5,924.5,566Z" transform="translate(-25.84 -20.52)"/><path id="Path-118" data-name="Path" class="cls-4" d="M918.6,558.3a53.52,53.52,0,0,0,1.7-27.5c-1.1-4.9-6-13.5-12.1-8.8-5.7,4.4-3.1,16.5-2.5,22.4s-.1,10.1-3.2,15.2a70.82,70.82,0,0,0-6.6,13.9c-.7,1.8,2.2,2.6,2.9.8,2.3-6.5,6.4-11.8,9.1-18,2.5-5.8.8-12.1.4-18.2-.2-2.8-1-7.3.1-10,.1-2.1,1.4-2.5,3.9-1.4,2.8-1.1,4.4-.3,4.7,2.5a25.36,25.36,0,0,1,1.2,6.1,53.42,53.42,0,0,1-2.3,22.1,1.43,1.43,0,1,0,2.7.9Z" transform="translate(-25.84 -20.52)"/><path id="Path-119" data-name="Path" class="cls-4" d="M927.7,533.3c-1.2-4.6-6.4-8.3-10.9-5.2-1.6,1.1-.1,3.7,1.5,2.6,2.8-1.9,5.7.6,6.5,3.4A1.5,1.5,0,0,0,927.7,533.3Z" transform="translate(-25.84 -20.52)"/><path id="Path-120" data-name="Path" class="cls-4" d="M897.7,571.1c-1.6-5.9-5.5-13.4-12.1-14.6-6.3-1.2-8.5,4.9-8.7,10-.5,9.6,4.6,16.2,7.1,25,2,7.1,1.4,14.2,8.6,18.4a1.5,1.5,0,0,0,1.5-2.6c-5.4-3.1-5.6-8.5-6.7-14-.8-4.4-2.9-8.1-4.7-12.2-2.1-4.7-4.4-12-2.6-17.1.1-.5.2-.9.3-1.4,2.3-.7,4.6-1.5,6.8-2.2,1.3.4,2.9,2.5,3.8,3.5a19.56,19.56,0,0,1,3.7,8,1.55,1.55,0,0,0,3-.8Z" transform="translate(-25.84 -20.52)"/><path id="Path-121" data-name="Path" class="cls-4" d="M892,608.4c4.2,34.7,8.7,70.7,5.6,105.6a149,149,0,0,1-12.2,46.9c-5.4,12.4-9.3,24.1-6.7,37.7.4,1.9,3.3,1.1,2.9-.8-2.9-15.2,3.3-27.7,9-41.3,6-14.1,9-29.1,10.2-44.3,2.7-34.4-1.6-69.7-5.7-103.8-.4-1.9-3.4-1.9-3.1,0Z" transform="translate(-25.84 -20.52)"/><path id="Path-122" data-name="Path" class="cls-4" d="M922.3,604c-2.4,6.9-1.2,14.6-.4,21.7.9,7.5,2.1,15,3.5,22.4,3.1,16.3,7,32.4,9.1,48.9a204.29,204.29,0,0,1,.4,48.8c-1.8,16.1-4.9,33.7-13.9,47.5-4.3,6.6-10.7,13-18.8,14.5-8.7,1.7-16.6-3.5-20.7-11-.9-1.7-3.5-.2-2.6,1.5,5.8,10.5,17.7,15.7,29,10.7,13.4-5.9,20.5-20.9,24.4-34.2,10.3-35,7.4-71.5.3-106.8-2-10-4.2-20-5.8-30.1-.9-5.4-1.6-10.8-2.2-16.2-.5-5.7-1.3-11.7.6-17.2.7-1.5-2.2-2.3-2.9-.5Z" transform="translate(-25.84 -20.52)"/><path id="Path-123" data-name="Path" class="cls-9" d="M932.1,541.7a80.47,80.47,0,0,1-.9,18.4,70.85,70.85,0,0,1-17.1,36.1c-.1,5.7-.3,14.5,0,25.1,1.2,47.6,8.6,70.9,9.8,93.2,1.2,21.7-2.8,53.4-27.8,94.4a24.22,24.22,0,0,0,13.9-2.6c4.9-2.6,12.5-8.6,19.4-28.7,6.3-18.4,13.2-52.1,5.5-90.7-3.4-16.8-8.6-30-11.3-58.2-.7-7.5-1-13.8-1.2-18.1a124.26,124.26,0,0,1,7.8-15.5c5.9-9.9,9.7-13.2,10.7-20.3a29.62,29.62,0,0,0-2.3-15.1,21.09,21.09,0,0,0-1.4-11.8,13.6,13.6,0,0,0-5.1-6.2Z" transform="translate(-25.84 -20.52)"/><path id="Path-124" data-name="Path" class="cls-10" d="M922,618c-.5.1,1.1,17.5,4.3,52.3,2.9,30.7,4.3,46,4.3,47.2,1,45.6-13,77.8-10.7,78.9,1.6.8,9.6-15.4,14.2-35,6.3-27.1,3.8-50.6,2.3-64.1-1.4-11.9-1.9-8.6-9-49-3.5-20.3-4.9-30.4-5.4-30.3Z" transform="translate(-25.84 -20.52)"/><path id="Path-125" data-name="Path" class="cls-11" d="M675.7,712.5c-9.5,19.3-12.2,36.3-14.7,52.9a238,238,0,0,0-2.7,37.6,537.86,537.86,0,0,0,81.8,15.2c29.6,3.2,20.9-.7,95.6,1.9,37.3,1.3,56.5,2.6,61.8-7.6,4.4-8.6-6.4-17.2-7-37-.5-15.9,5.8-28.9,10.8-37a835.26,835.26,0,0,0-102-33.7,826.62,826.62,0,0,0-105.1-20.4A136.93,136.93,0,0,0,675.7,712.5Z" transform="translate(-25.84 -20.52)"/><path id="Path-126" data-name="Path" class="cls-7" d="M678.3,709.1c7.3,14.6,22.7,39.6,51.4,53.6,11.2,5.5,23.9,9,61.3,10.9a750.16,750.16,0,0,0,98.5-1.5,41,41,0,0,0,2.9,19c2.6,6.1,6.2,9.6,5.8,16a14.12,14.12,0,0,1-2.9,8.4c-3.6,4.2-9.5,4.6-12.4,4.7-28.8,1.4-38.7.4-38.7.4-24.2-2.6-45.7-2-63.5-1.5-7.7.2-11.8.5-20.1.4a307.12,307.12,0,0,1-35.7-2.9,509.93,509.93,0,0,1-66-13.9,262,262,0,0,1,2.9-43.4c2.5-16.4,5.5-25.5,6.6-28.4a128.34,128.34,0,0,1,9.9-21.8Z" transform="translate(-25.84 -20.52)"/><path id="Path-127" data-name="Path" class="cls-9" d="M667.3,735.3a100.21,100.21,0,0,0,21.9,29.5c19,17.4,39.5,22,63.8,27.7,51.5,12.2,104,26.1,103.6,28.4-.2,1.4-19.8-1.8-53.6-2.2-8.2-.1-13.5-.2-21.2,0-15,.3-19.1,1.1-28.1.7a147.09,147.09,0,0,1-24.4-3.3c-30.5-6.1-60.9-12.8-70.7-15,.1-6.4.5-13.1,1.1-20.1a313,313,0,0,1,7.6-45.7Z" transform="translate(-25.84 -20.52)"/><path id="Path-128" data-name="Path" class="cls-12" d="M959.3,793.7c-21.2,3-33.3,3.6-53.1,9.2a207,207,0,0,0-21.5,7.3,93.35,93.35,0,0,1-5.2-40,87.19,87.19,0,0,1,6-25.1,110.61,110.61,0,0,0,20.5,3.2,111.84,111.84,0,0,0,25.2-1.3c2.5-9,4.9-17.9,7.4-26.9,4.5-1.2,9.1-2.5,13.6-3.7.4-2.5.9-5,1.3-7.5,5.6,2.6,14.5,6.8,25.6,11.5,20.9,9,23.9,9.3,28.4,13.3,12.1,10.9,17.9,32.6,9,45.1C1011.1,786.3,993.8,788.8,959.3,793.7Z" transform="translate(-25.84 -20.52)"/><path id="Path-129" data-name="Path" class="cls-4" d="M951.8,708.7a74.74,74.74,0,0,0-.8,14.2c.1,1.9,3.1,1.9,3,0a75.27,75.27,0,0,1,.7-13.4c.2-1.9-2.7-2.7-2.9-.8Z" transform="translate(-25.84 -20.52)"/><path id="Path-130" data-name="Path" class="cls-4" d="M984.4,734.2c.8,3.7-1.5,7-4.7,8.5-1.8.8-.2,3.4,1.5,2.6a10.69,10.69,0,0,0,6.1-11.9c-.4-1.9-3.3-1.1-2.9.8Z" transform="translate(-25.84 -20.52)"/><path id="Path-131" data-name="Path" class="cls-4" d="M973.1,733.2a5.5,5.5,0,0,1,3.2,1.2l.6.6c.6-.5.7-.8.2-.7a7,7,0,0,0-1.4-.3,9.38,9.38,0,0,1-1.5-.6,3.51,3.51,0,0,1-.8-.5c-.8.5-.9.9-.2,1.1a9.91,9.91,0,0,0,1.7,1.1c.6.4,1.1.7,1.7,1.1,1.6,1,2.8-1.1,1.8-2.4a5,5,0,0,0-2.2-1.6c-1.8-.7-2.6,2.2-.8,2.9a3.45,3.45,0,0,1,.9.8l1.8-2.4a46.54,46.54,0,0,0-4.1-2.6,2.38,2.38,0,0,0-3.2.7c-1.8,2.7,2.1,4.6,4.1,5.2a6,6,0,0,0,3.5.2,2.27,2.27,0,0,0,1.4-2.9c-.8-2.6-4.3-3.7-6.7-3.9-2-.1-1.9,2.9,0,3Z" transform="translate(-25.84 -20.52)"/><path id="Path-132" data-name="Path" class="cls-3" d="M1002.4,729.6a53.33,53.33,0,0,1,18.3,9.2c2.4,1.9,7.6,6,10.7,11.9,5.9,11.2,3.2,26.9-7.1,37.3-10.1,10.1-26.3,13.7-41.4,9.2Q992.65,763.45,1002.4,729.6Z" transform="translate(-25.84 -20.52)"/><path id="Path-133" data-name="Path" class="cls-4" d="M1007.3,691.3,979.1,795.7c-1.5,5.6,7.2,8,8.7,2.4L1016,693.7C1017.5,688.1,1008.8,685.7,1007.3,691.3Z" transform="translate(-25.84 -20.52)"/><path id="Path-134" data-name="Path" class="cls-13" d="M986.9,774.4c-1.6-6.6-5.8-10.8-10.7-15.7-10.4-10.4-15-8.3-21.5-15.5-10.2-11.5-2.1-20.7-12.2-31.1-8.6-8.8-21.6-9.5-24.6-9.6s-14.6-.2-23.6,7.5c-7.8,6.7-10.7,16.8-9.3,17.6.5.3,2-.4,6.8-5.5a18.83,18.83,0,0,0-4.4,7.1c-1.2,3.8-1,7.5-.4,7.6s.7-2,2.8-3.4a6.77,6.77,0,0,1,3.6-1.1c-2.6,2.8-5,6.5-4.2,10.3,2,10.6,25.8,15.5,33.7,17.1,25.6,5.3,40.6.2,48.6,9.8.7.8,3.9,4.7,2.7,8.3-1.6,4.6-9.9,7.2-14.9,5-4.3-1.9-4.9-6.8-5.8-6.6-1.1.3-.5,8.5,4.3,16,1.8,2.7,3.2,4.9,6.1,6.4,5.1,2.5,11.6,1.2,15.5-1.2,8.3-4.7,9.3-15.8,7.5-23Z" transform="translate(-25.84 -20.52)"/><path id="Path-135" data-name="Path" class="cls-14" d="M952.3,779.5c0-1.5.2-3.7.8-3.7.3,0,.6.6.6.5s-2.2-2.1-2.2-4.4a4.11,4.11,0,0,1,.9-2.5,237.56,237.56,0,0,1-34,7.3,241.9,241.9,0,0,1-38,2.3,51.86,51.86,0,0,0,.6,16.8,53.41,53.41,0,0,0,4.7,13.6,155,155,0,0,1,35.6-10.9c3.8-.6,12.8-2,17.2-2.6,8-1.2,14.6-2.1,19.1-2.7a35.88,35.88,0,0,1-2.1-3.2,21.31,21.31,0,0,1-3.2-10.5Z" transform="translate(-25.84 -20.52)"/><path id="Path-136" data-name="Path" class="cls-15" d="M1034.2,764.3a22.51,22.51,0,0,1-21.4,14.7c-11.2-.2-17.8-8.8-18.4-9.6-2.6,9.6-5.1,19.3-7.7,28.9a42,42,0,0,0,9.7.9,42.51,42.51,0,0,0,23-7.3c2.8-1.9,12-8.9,14.3-20.8a37.12,37.12,0,0,0,.5-6.8Z" transform="translate(-25.84 -20.52)"/><path id="Path-137" data-name="Path" class="cls-6" d="M855.9,559.1c4.4,6.1,9.4,12.5,15.2,19.1a242.5,242.5,0,0,0,22.7,22.7q15.45-15,32.7-30.4c10.9-9.8,21.7-19,32.3-27.7a105.59,105.59,0,0,0-36.3-41.5,430.34,430.34,0,0,0-52.3,43.2c-5,5-9.7,9.8-14.3,14.6Z" transform="translate(-25.84 -20.52)"/><path id="Path-138" data-name="Path" class="cls-4" d="M876.2,541.8a388.52,388.52,0,0,1,45.9-39.1c1.5-1.1.1-3.7-1.5-2.6a390.55,390.55,0,0,0-46.5,39.6A1.48,1.48,0,1,0,876.2,541.8Z" transform="translate(-25.84 -20.52)"/><path id="Path-139" data-name="Path" class="cls-4" d="M921.4,502.1a143.62,143.62,0,0,1,35.9,39.8c1,1.6,3.6.1,2.6-1.5a148.92,148.92,0,0,0-37-40.9C921.4,498.4,919.9,501,921.4,502.1Z" transform="translate(-25.84 -20.52)"/><path id="Path-140" data-name="Path" class="cls-4" d="M875.7,538.3a264.15,264.15,0,0,0-20.9,20.1c-1.3,1.4.8,3.5,2.1,2.1a248,248,0,0,1,20.9-20.1C879.3,539.1,877.2,537,875.7,538.3Z" transform="translate(-25.84 -20.52)"/><path id="Path-141" data-name="Path" class="cls-4" d="M855.2,561.2a430.3,430.3,0,0,0,36.7,39.7c1.4,1.3,3.5-.8,2.1-2.1a444.68,444.68,0,0,1-36.7-39.7C856.1,557.5,853.9,559.7,855.2,561.2Z" transform="translate(-25.84 -20.52)"/><path id="Path-142" data-name="Path" class="cls-4" d="M895.2,601.5q31.65-30.15,65-58.3c1.5-1.2-.7-3.4-2.1-2.1q-33.3,28.2-65,58.3C891.7,600.7,893.8,602.8,895.2,601.5Z" transform="translate(-25.84 -20.52)"/><path id="Path-143" data-name="Path" class="cls-4" d="M867.6,560.2c6.8,8.8,13.9,17.4,21.2,25.7,1.3,1.5,3.4-.7,2.1-2.1-7.3-8.4-14.4-17-21.2-25.7C868.6,556.5,866.5,558.7,867.6,560.2Z" transform="translate(-25.84 -20.52)"/><path id="Path-144" data-name="Path" class="cls-4" d="M869.8,560.2c15.2-16.7,33.1-30.4,50.9-44.1,1.5-1.2,0-3.8-1.5-2.6-18.1,13.8-36.2,27.7-51.5,44.5C866.3,559.5,868.5,561.6,869.8,560.2Z" transform="translate(-25.84 -20.52)"/><path id="Path-145" data-name="Path" class="cls-4" d="M921,516.1a178.81,178.81,0,0,1,25.3,23.1c1.3,1.4,3.4-.7,2.1-2.1a187,187,0,0,0-25.9-23.6C920.9,512.4,919.4,515,921,516.1Z" transform="translate(-25.84 -20.52)"/><path id="Path-146" data-name="Path" class="cls-4" d="M890.6,586.7c5.1-.2,9-2.7,13-5.7,5.2-4,10.3-8.1,15.3-12.4,10.6-8.9,20.7-18.3,30.4-28,1.4-1.4-.8-3.5-2.1-2.1C938.8,547,930,555.1,921,563c-4.4,3.8-8.9,7.5-13.4,11.2-4.9,3.9-10.3,9.4-17,9.6-1.9-.1-1.9,2.9,0,2.9Z" transform="translate(-25.84 -20.52)"/><path id="Path-147" data-name="Path" class="cls-10" d="M916.4,503c-2.4,4.5-5.9,11-10,18.9-10.2,19.8-15.4,29.8-17,36.1-2.1,8.2-3.7,22.6,4.8,42.9-12.7-13.5-25.4-27.1-38.1-40.6L916.4,503Z" transform="translate(-25.84 -20.52)"/><path id="Path-148" data-name="Path" class="cls-2" d="M906,535.4a180.51,180.51,0,0,1,13.5,15.5c1.2,1.5,3.3-.6,2.1-2.1a180.51,180.51,0,0,0-13.5-15.5C906.8,531.9,904.7,534,906,535.4Z" transform="translate(-25.84 -20.52)"/><path id="Path-149" data-name="Path" class="cls-2" d="M907.2,535c2.3-1.5,4.7-2.9,7-4.4,1.2-.8,2.5-2,3.9-2.4,1.9-.7.7-1.1,2.2-.3,1.8.9,3.8,4.8,5.1,6.4l5.6,7.1c1.2,1.5,3.3-.6,2.1-2.1-2.4-3.1-4.9-6.2-7.3-9.3-1.2-1.6-3.1-5.4-5.2-5.9-1.5-.3-2.8.7-4,1.5-3.7,2.2-7.3,4.6-10.9,6.8-1.6,1.1-.1,3.7,1.5,2.6Z" transform="translate(-25.84 -20.52)"/><path id="Path-150" data-name="Path" class="cls-2" d="M921.3,550.8a35.39,35.39,0,0,0,11.1-7.6c1.4-1.4-.8-3.5-2.1-2.1a35.4,35.4,0,0,1-10.5,7.1C918,549,919.5,551.6,921.3,550.8Z" transform="translate(-25.84 -20.52)"/><path id="Path-151" data-name="Path" class="cls-2" d="M914.5,540.7c1.3-1.3,2.5-2.6,4.5-2.3a6.09,6.09,0,0,0,2.7.2,1.52,1.52,0,0,0,.9-2.2c-.9-1.5-1.7,1-1.7,1.9a3.34,3.34,0,0,0,.9,2.3c1.5,1.6,3.7,1.2,5.5.4s1-3.6-.8-2.9a7.94,7.94,0,0,1-2.2.6,2.56,2.56,0,0,1,0-2.1,6.73,6.73,0,0,0-.1-2,2.67,2.67,0,0,0-2.2-2c-3.2-.4-3.2,3.4-2,5.4.3-.7.6-1.5.9-2.2-.8.1-1.8-.5-2.6-.5a6.46,6.46,0,0,0-1.9.4,10.49,10.49,0,0,0-3.9,3c-1.5,1.3.7,3.4,2,2Z" transform="translate(-25.84 -20.52)"/><path id="Path-152" data-name="Path" class="cls-2" d="M913,534.3a13.27,13.27,0,0,0,4-.3c1.9-.4,1.1-3.3-.8-2.9a11.5,11.5,0,0,1-3.2.2,1.47,1.47,0,0,0-1.5,1.5,1.54,1.54,0,0,0,1.5,1.5Z" transform="translate(-25.84 -20.52)"/><path id="Path-153" data-name="Path" class="cls-2" d="M890.1,548.7c4.6,5.3,9.2,10.5,13.9,15.6,1.3,1.4,3.4-.7,2.1-2.1-4.7-5.1-9.4-10.3-13.9-15.6C891,545.1,888.9,547.2,890.1,548.7Z" transform="translate(-25.84 -20.52)"/><path id="Path-154" data-name="Path" class="cls-2" d="M892.5,549.1c1-1.8,1.5-3.3,3.6-3.4,1.8-.1,2.9,1.3,4.1,2.4,1.7,1.5,3.1,3.3,4.8,4.9a34.65,34.65,0,0,0,4.2,3.4c1.3.9,2.5,1.4,1.1,3.1-.8,1-2.9,1.4-4.1,1.8-1.8.6-1,3.5.8,2.9,2.7-.9,7-2.3,7.9-5.5a2.33,2.33,0,0,0-.8-2.8c-1.9-1.7-4.5-2.8-6.4-4.6-3.2-2.9-6-7.2-10.1-8.9-3.9-1.5-5.9,2.1-7.6,5.1C889,549.2,891.6,550.8,892.5,549.1Z" transform="translate(-25.84 -20.52)"/><path id="Path-155" data-name="Path" class="cls-6" d="M862,537.5c-3.4,1.4-3.2,2.9-7.5,5.7-3.5,2.3-4.7,2-6.1,3.9a9.83,9.83,0,0,0-1.8,6.1A13.88,13.88,0,0,0,840,555a15.18,15.18,0,0,0-7.5,9.6,14.71,14.71,0,0,0,.9,9.2,11.23,11.23,0,0,0-4.4,5.7c-1.1,3.6.3,6.9,2.2,10.5,5.2,10.1,9.9,14.3,15.3,22.8a84,84,0,0,1,6.1,11.4,109.93,109.93,0,0,1-.9,17.5,108.45,108.45,0,0,1-5.3,21.9c-4.5,13-12.4,43.4-13.2,71.3-.4,14.3-.8,37.2,11.8,60.6,4.7,8.8,11.7,21.2,25.9,26.3,2.2.8,18.7,6.7,30.2-2.6a25.82,25.82,0,0,0,7.5-10.5,30,30,0,0,0,.4-6.6c-.4-12.1-7.6-20.8-10.1-24.1-8.7-11.5-11.3-24.3-15.8-46-2.8-13.4-2.2-25-.9-47.8a551,551,0,0,1,7-61.8,12.78,12.78,0,0,0,7-3.9c3-3.7,1.2-7.1,3.5-13.6,1.7-4.9,3.1-4,6.1-10.5,2.2-4.7,4.1-9,3.1-14-.2-1-1.5-6.9-5.7-8.3-5.4-1.9-11.6,4.9-13.1,6.6a26.59,26.59,0,0,0-5.3,9.2,90.94,90.94,0,0,1-9.2-14.5c-1.3-2.6-2.5-5.1-3.5-7.5.5-2.2,1.2-5.4,1.7-9.3.6-5.2.9-7.9.1-11.3-.6-2.3-1.8-7.4-5.7-8.8-2.1-.8-4.8.3-6.2,1Z" transform="translate(-25.84 -20.52)"/><path id="Path-156" data-name="Path" class="cls-4" d="M852.5,619.2c-5-7-10.1-14-15-21.1-4.7-6.8-10.2-16.4-3.4-23.9,1.3-1.4-.8-3.6-2.1-2.1-5.3,5.8-4.7,13.7-1.4,20.4,5,10,12.9,19.1,19.4,28.2C851,622.3,853.6,620.8,852.5,619.2Z" transform="translate(-25.84 -20.52)"/><path id="Path-157" data-name="Path" class="cls-4" d="M843.1,587.2c-4.8-5-8.8-11.8-8.7-18.9.1-6.9,5.1-12.1,11.7-13.2,1.9-.3,1.1-3.2-.8-2.9a16.55,16.55,0,0,0-13.8,13.9c-1.2,8.6,3.7,17.3,9.5,23.3,1.3,1.4,3.4-.8,2.1-2.2Z" transform="translate(-25.84 -20.52)"/><path id="Path-158" data-name="Path" class="cls-4" d="M853.2,578.3a25.74,25.74,0,0,1-2.5-30.9c1-1.6-1.6-3.1-2.6-1.5a28.74,28.74,0,0,0,2.9,34.5C852.4,581.9,854.5,579.8,853.2,578.3Z" transform="translate(-25.84 -20.52)"/><path id="Path-159" data-name="Path" class="cls-4" d="M861.3,571.7c-3.2-7.8-4.4-16.5-2.4-24.8,1.1-4.7,7.1-13.6,11.9-6.4,2,3,1.3,7.5,1,10.9-.5,6.4-2.8,13.4.5,19.4,1.6,2.8,4,5.2,5.8,7.8a64.91,64.91,0,0,1,5.8,10.3c.8,1.8,3.4.2,2.6-1.5a65.17,65.17,0,0,0-7.8-12.9c-1.8-2.4-4.1-4.6-4.9-7.6s0-6.1.3-9.1c.8-6.1,3.3-17.5-3.3-21.6-5.9-3.7-12.2,1.8-14.1,7.2-3.4,9.3-2,20.2,1.6,29.2C859.1,574.3,862,573.5,861.3,571.7Z" transform="translate(-25.84 -20.52)"/><path id="Path-160" data-name="Path" class="cls-4" d="M849.7,548.3a6.45,6.45,0,0,1,8.9-3.4c1.7.9,3.2-1.7,1.5-2.6a9.53,9.53,0,0,0-13.3,5.2C846.1,549.3,849,550.1,849.7,548.3Z" transform="translate(-25.84 -20.52)"/><path id="Path-161" data-name="Path" class="cls-4" d="M888,586.1a18.85,18.85,0,0,1,8.4-10.8c2.8-1.6,4-1.6,7.1-.5,3.6,1.3,4.1,2.1,4.4,5.9a21.64,21.64,0,0,1,0,3.6,27,27,0,0,1-3.5,10.7c-2.1,3.8-4.7,7.3-5.9,11.6-1.8,6.5-1.9,11.8-8.9,14.9-1.8.8-.2,3.4,1.5,2.6a15.33,15.33,0,0,0,7.2-6.1c2.3-3.7,2.1-8.1,3.5-12.1,1.6-4.4,4.7-8.1,6.7-12.3a26.85,26.85,0,0,0,2.4-12.8c-.4-6-3.9-11-10.5-10-7.5,1.1-13,7.8-15.3,14.6-.7,1.7,2.2,2.5,2.9.7Z" transform="translate(-25.84 -20.52)"/><path id="Path-162" data-name="Path" class="cls-4" d="M888.6,622.2c-2.8,18.2-5.1,36.5-6.7,54.8-1.4,16.4-2.3,32.9-.7,49.4,1.5,15.1,5.3,29.8,12.4,43.2,7.2,13.7,16.1,26.2,12.1,42.5a1.5,1.5,0,0,0,2.9.8c3.4-14.1-1.8-25.6-8.5-37.7-8-14.3-13.4-28.9-15.5-45.3s-1.3-32.9,0-49.3q2.4-28.8,6.9-57.5c.3-2-2.6-2.8-2.9-.9Z" transform="translate(-25.84 -20.52)"/><path id="Path-163" data-name="Path" class="cls-4" d="M850.1,619.3c2,4.4,1.5,9.3,1,14-.6,5.3-1.4,10.6-2.5,15.9-1.8,9.3-4.3,18.5-6.7,27.7-4.7,18.1-9.2,36.2-9.8,54.9-.6,18.5,1.8,37.6,7.9,55.1,5.1,14.6,14.1,28.7,28.6,35.2,13.7,6.1,30.6,3.2,39.4-9.6,1.1-1.6-1.5-3.1-2.6-1.5-9.7,14-29,13.7-42,4.7-14-9.7-20.4-26.4-24.2-42.3a157.77,157.77,0,0,1-3.3-53.9c2-17.6,7-34.6,11.3-51.7A263.81,263.81,0,0,0,853,640c1.1-7.3,2.6-15.3-.6-22.2-.5-1.8-3.1-.2-2.3,1.5Z" transform="translate(-25.84 -20.52)"/><path id="Path-164" data-name="Path" class="cls-9" d="M840.9,555.8a63.59,63.59,0,0,0,1.1,18.4c4.1,19.2,16.2,31.3,21.7,36.1.2,5.7.3,14.5,0,25.1-1.5,47.6-10.9,70.9-12.5,93.2-1.5,21.7,3.6,53.4,35.4,94.4a38.18,38.18,0,0,1-17.7-2.6c-6.2-2.6-15.9-8.6-24.7-28.7a143.28,143.28,0,0,1-7-90.7c4.3-16.8,11-30,14.4-58.2.9-7.5,1.3-13.8,1.5-18.1a120,120,0,0,0-10-15.5c-7.5-9.9-12.4-13.2-13.6-20.3-.9-5,.3-10.1,2.9-15.1a17,17,0,0,1,1.8-11.8,17.91,17.91,0,0,1,6.7-6.2Z" transform="translate(-25.84 -20.52)"/><path id="Path-165" data-name="Path" class="cls-10" d="M853.8,632.1c.7.1-1.4,17.5-5.5,52.3-3.7,30.7-5.5,46-5.5,47.2-1.3,45.6,16.5,77.8,13.6,78.9-2.1.8-12.2-15.4-18.1-35-8.1-27.1-4.9-50.6-2.9-64.1,1.7-11.9,2.4-8.6,11.4-49C851.3,642.1,853.1,632,853.8,632.1Z" transform="translate(-25.84 -20.52)"/><path id="Shape" class="cls-6" d="M374.3,917.9a31.78,31.78,0,0,0-5.6-9.4c-3.3-3.9-6.1-5.3-8.3-6.9-3.9-3-5.4-6.7-11.8-34.4-3-13.2-3.3-14.7-2.8-17.4,1.3-7,5-9.4,6.9-18.4.9-4.3.9-7.4.7-13.2-.3-8.8-.5-17.8-4.2-28.1-3.3-9.5-7.1-20-17-24.7-6.9-3.2-13.7-2.1-19.8-1-12.3,2.2-15,6.8-27.8,12.5-6.4,2.8-24.8,11-46.6,9.7-9.7-.6-15.1-2.7-21.2,1-6.4,4-9.1,11.6-11.1,17.4a53.07,53.07,0,0,0-3.1,17.4c-1.3,4.3-3.3,10.8-5.6,18.8-6.4,22.8-6.4,27-10.8,39.3-4.4,12.5-7.2,20.3-13.9,29.2-2.2,2.9-2.3,2.6-22.6,22.2-10.4,10-15.9,15.5-18.4,24.7-1,3.6-2.6,9.3.3,13.2.9,1.1,3.8,4.4,21.5,3.8,8.2-.3,9.3-1,17.7-1.7a165.53,165.53,0,0,1,33.7.7c5.8.6,10.6,1.5,13.9,2.1a81.67,81.67,0,0,1,13.6,2.4c10.1,2.8,13.2,5.9,22.2,9.7,5.5,2.3,16.8,7,30.6,6.6a60.72,60.72,0,0,0,21.9-4.9,55.8,55.8,0,0,0,17,0,63.84,63.84,0,0,0,16.3-5.2c5.2-2.3,4.9-2.8,11.5-5.9,11.5-5.6,13.4-4.6,16.7-7.6,2.4-2.2,4.6-5.7,5.9-20.2a154.69,154.69,0,0,0,.2-31.7ZM209,945.5c.8,5.5,2.4,9.9,0,12.3-3.1,3-8.4-1.3-21.8-.6-2.2.1-3.5.3-10,.8-5.7.4-5.5.3-9.1.6-5.8.5-6.3.8-8.7.6-4.3-.4-6.5-.5-8.3-2.1-2.9-2.5-3.4-7.1-2.8-10.2,1-6.2,6.1-8.8,15.2-16.3A151.79,151.79,0,0,0,179,916c3.7-4.9,7.3-10,11-15.3,1.7-2.5,3.3-4.9,4.9-7.4,1.5-4.1,3.4-9.8,5.3-16.7,5-18.2,5.1-29.5,6.8-29.6,2,0,3.7,14.8,4.4,22.9a173.11,173.11,0,0,1,.2,24.8,25,25,0,0,1,2.8,9.3,25.41,25.41,0,0,1-1.1,10.6c-5.4,13.5-5.4,23.8-4.3,30.9Z" transform="translate(-25.84 -20.52)"/><path id="Path-166" data-name="Path" class="cls-4" d="M209.5,793c-13.3,21.6-4.8,47-1,70.1a100,100,0,0,1,1.4,20.4,52.24,52.24,0,0,0-.2,9.7c.4,3,1.5,5.7,2.2,8.6,1.9,7.5-.8,15.1-2.3,22.4-1.3,6.3-2.6,12.6-2.8,19-.4,10.1,2.1,20.9,9.4,28.2,8.1,8.1,19.9,6.8,29.6,11.9,10.1,5.4,19.6,9.9,31.2,11a66,66,0,0,0,17.2-.7c6-1,11.6-3.9,17.6-4.9,5.7-.9,11.2,1.1,16.9-.4,6.4-1.6,12.6-5.2,18.6-7.9,6.2-2.8,12.4-5.7,18.7-8.5,4.1-1.9,7.8-3.6,8.8-8.4,1.3-6,.6-13.1.7-19.2.2-6.4.7-12.8.3-19.2a32.08,32.08,0,0,0-2.5-11.9c-2.6-5.8-8.1-7.6-11.7-12.4-7.1-9.8-10.7-23.5-12.7-35.3-.6-3.7-1-7.4-1.3-11.1s1.1-6.2,2.5-9.5a54.18,54.18,0,0,0,3.9-14.7c1.6-11.6.1-23.5-2.6-34.8-2.3-9.6-5.4-20.3-13.1-27.1-20.2-17.8-46.7,3.1-65.4,11.9-6.9,3.2-14.1,5.3-21.7,5.3-7.3,0-14.5-1.4-21.8-.9-9.7.6-19.8,5-23.1,14.7-.6,1.8,2.3,2.6,2.9.8,4-11.7,17.9-13,28.4-12.4,11.2.7,21.4,1.4,32-2.8,18.2-7.2,37.1-25.4,58.2-19,11.6,3.5,16.5,14.8,19.5,25.6s4.9,22,4.3,33.2a61,61,0,0,1-3.1,16.3,49.28,49.28,0,0,1-3.1,7.1c-1.3,2.6-1,4.5-.8,7.5a106.43,106.43,0,0,0,6.9,31.5,108.12,108.12,0,0,0,5.9,13c2.5,4.4,5.9,6.2,9.4,9.6,8,7.6,5.9,21.1,5.6,31l-.6,18.9c-.1,4.2-1,6.6-4.6,8.7a77.76,77.76,0,0,1-9.3,4.2c-5.6,2.6-11.3,5.1-16.9,7.7-6.4,2.9-12.8,6.6-20.1,6.2-4.8-.2-8.7-.8-13.4.5-5.8,1.7-11.3,3.8-17.3,4.5a61.36,61.36,0,0,1-33.8-5.4c-4.4-2.1-8.5-4.9-13-6.9-4.7-2.1-9.6-2.6-14.6-3.8-11.8-2.8-18.1-14-19.1-25.4-1.2-13.6,4-26.3,5.6-39.6.9-6.7-2.6-12.3-3.1-18.9s.7-13.3,0-20.1c-2.5-25.1-15-53-.5-76.7,1.5-1.8-1.1-3.3-2.2-1.6Z" transform="translate(-25.84 -20.52)"/><path id="Path-167" data-name="Path" class="cls-4" d="M211.4,792.7c17.5-2.6,31.2,11.4,38.5,25.6,7,13.4,10.6,28.3,18.3,41.4,6.5,11,16,20.2,28.8,23a41.07,41.07,0,0,0,33.1-6.9c12.5-9.4,17.9-24.9,20.7-39.7.4-1.9-2.5-2.7-2.9-.8-2.6,13.5-7.2,28-18.2,37a38,38,0,0,1-40.4,4.5c-26.7-13.3-26.9-49.6-43.9-71-8.4-10.6-21.2-18-35-16-1.7.3-.9,3.2,1,2.9Z" transform="translate(-25.84 -20.52)"/><path id="Path-168" data-name="Path" class="cls-4" d="M317.1,888.1c.1.2.2.3.3.5a11,11,0,0,0,.2-1.8l-.5.5a11,11,0,0,1,1.8-.2c-1.7-.9-2.5-4.7-3.1-6.4a56.35,56.35,0,0,1-2-8.1c-.3-2.1-1.7-17.8,2.7-16.3,1.3.5,2.3,5.9,2.7,7.3a57.53,57.53,0,0,1,1.4,8.3c.3,2.7.3,5.4.4,8,0,1.2.1,2.4.1,3.6a10.87,10.87,0,0,1-.1,1.8,1.16,1.16,0,0,1-.8,1.5c.2-1.9-2.8-1.9-3,0a3.09,3.09,0,0,0,3.5,3.4c2.9-.3,3.3-3.5,3.3-5.8a89.75,89.75,0,0,0-.9-16.4c-.6-4.4-1.5-10.7-4.7-14.1-5.9-6.4-7.9,6.1-8,9.5a48,48,0,0,0,1.8,15.6c.9,3,2.2,9.1,5.3,10.7a1.51,1.51,0,0,0,1.8-.2l.5-.5a1.39,1.39,0,0,0,.2-1.8c-.1-.2-.2-.3-.3-.5a1.48,1.48,0,1,0-2.6,1.4Z" transform="translate(-25.84 -20.52)"/><path id="Path-169" data-name="Path" class="cls-4" d="M293.1,942.3a424.23,424.23,0,0,0,4.2,47.8c.3,1.9,3.2,1.1,2.9-.8a436.17,436.17,0,0,1-4.1-47c-.1-1.9-3.1-1.9-3,0Z" transform="translate(-25.84 -20.52)"/><path id="Path-170" data-name="Path" class="cls-4" d="M295.2,943c7.1-10,19.8-14.2,30.8-18a248.6,248.6,0,0,1,37-9.7c1.9-.3,1.1-3.2-.8-2.9A247.5,247.5,0,0,0,319.9,924c-10.3,3.9-20.8,8.3-27.4,17.5C291.5,943.1,294.1,944.6,295.2,943Z" transform="translate(-25.84 -20.52)"/><path id="Path-171" data-name="Path" class="cls-4" d="M295.7,943.6c11.8,6.3,23.3,11.1,36.9,7.5,13-3.5,25.1-10.8,35.3-19.3,1.5-1.2-.6-3.3-2.1-2.1-9.5,7.9-20.5,14.5-32.3,18.1-13.4,4.1-24.5-.3-36.3-6.7-1.7-1-3.2,1.6-1.5,2.5Z" transform="translate(-25.84 -20.52)"/><path id="Path-172" data-name="Path" class="cls-4" d="M342.3,941.2c.8,3.9,1.6,7.9,2.4,11.8.4,1.9,3.3,1.1,2.9-.8-.8-3.9-1.6-7.9-2.4-11.8C344.8,938.5,341.9,939.3,342.3,941.2Z" transform="translate(-25.84 -20.52)"/><path id="Path-173" data-name="Path" class="cls-4" d="M349,938.4c.4,3.7.7,7.4,1.1,11.1.2,1.9,3.2,1.9,3,0-.4-3.7-.7-7.4-1.1-11.1C351.8,936.5,348.8,936.4,349,938.4Z" transform="translate(-25.84 -20.52)"/><path id="Path-174" data-name="Path" class="cls-4" d="M212.1,916.7c-1.9,5.5,0,10.5,6.5,9.4a41.07,41.07,0,0,0,4.6-1.5,8.76,8.76,0,0,1,3.2-.7c5.1.7,2.2,2.4,3.5,4.2,1.5,2,2.4,3,5.1,3,3.6-.1,10.7-3.5,13.1.9.9,1.8,0,6.6,0,8.8,0,2.6.1,5.2.1,7.8.2,11.4.5,22.8.9,34.1.1,1.9,3.1,1.9,3,0-.7-17.5-1-35.1-1.1-52.7a1.56,1.56,0,0,0-.7-1.3,18,18,0,0,0-10.2-1.7c-2.5.3-3.6,1.3-6-.1s-1.5-2.1-2.9-3.9-3.7-2.3-6-2a22.53,22.53,0,0,0-4.4,1.4,8.42,8.42,0,0,1-2.7.8c-2.2-.1-3.8-3.5-3-5.6a1.57,1.57,0,0,0-3-.9Z" transform="translate(-25.84 -20.52)"/><path id="Path-175" data-name="Path" class="cls-4" d="M205.5,817.6c.1-11.5,3.8-32.3,20.2-28.3a1.5,1.5,0,0,0,.8-2.9c-6.9-1.7-13.7,1.3-18,6.8-5.4,6.8-6,16-6,24.4A1.5,1.5,0,1,0,205.5,817.6Z" transform="translate(-25.84 -20.52)"/><path id="Path-176" data-name="Path" class="cls-4" d="M202.8,811.3c-2.2,4.6.9,9.3,3.7,13.1,2.9,4,7.3,7.6,12.5,6.5,2.9-.6,4.9-3.2,7.8-3.7,3.2-.7,6.3,2.1,9.5,2,6.8-.3,10.9-6.8,15.8-10.4,1.5-1.1.1-3.7-1.5-2.6-3.9,2.8-6.9,7.2-11.4,9.1-4.7,2-7.5-1.5-12-1.2s-7.1,4.9-11.9,3.7c-4-1-12-10.2-9.8-15,.7-1.7-1.9-3.3-2.7-1.5Z" transform="translate(-25.84 -20.52)"/><path id="Path-177" data-name="Path" class="cls-4" d="M203.6,809.5q-7.2,31.5-16.7,62.3c-3,9.7-5.8,19.8-10.8,28.8-4.3,7.7-10.2,14.2-16.5,20.3-11,10.6-23.7,20.6-29.9,35-2.5,5.8-3.2,11.8,2.5,15.9,6.3,4.6,15.6,4.4,22.9,3.7,11.2-1.1,22.3-4.6,33.6-3.7,10.8.9,21.1,5.3,31.9,2.1a1.51,1.51,0,0,0-.8-2.9c-9.7,2.9-19.2-.8-28.9-2-8-1-16,.3-23.8,1.6-9.4,1.6-20,3.9-29.3.6-5.8-2-8.3-6.3-6.2-12.2a44.17,44.17,0,0,1,5.9-10.9c8.5-12.2,20.9-21,30.9-31.9,11.2-12.3,16.3-27,21.2-42.7q9.6-31.35,17-63.3a1.54,1.54,0,0,0-3-.7Z" transform="translate(-25.84 -20.52)"/><path id="Path-178" data-name="Path" class="cls-4" d="M203.7,842.7c-1.8,18.9-3.8,38.3-13.1,55.3A81.9,81.9,0,0,1,175,918.4c-5.7,5.4-12.3,9.7-18.2,14.8-4.4,3.8-10.7,9.5-11.1,15.8-.4,5.7,4.4,10.2,9.5,11.7,8.2,2.5,18.1-.5,26.5-1a193.88,193.88,0,0,1,29.5.8c1.9.2,1.9-2.8,0-3a180.19,180.19,0,0,0-27.5-.9c-3.9.2-7.9.5-11.8.9-4.6.5-9.5,1.6-14.1.7-5.7-1.1-10.6-5.6-8.2-11.8,1.5-3.7,4.7-6.9,7.6-9.6,5.3-5,11.5-8.9,16.9-13.7a86.92,86.92,0,0,0,23.5-33c6.1-15.1,7.6-31.5,9.2-47.6.1-1.7-2.9-1.7-3.1.2Z" transform="translate(-25.84 -20.52)"/><path id="Path-179" data-name="Path" class="cls-4" d="M229.5,928a212,212,0,0,0,4.3,26.3c.4,1.9,3.3,1.1,2.9-.8a216.86,216.86,0,0,1-4.2-25.6C232.3,926.1,229.3,926.1,229.5,928Z" transform="translate(-25.84 -20.52)"/><path id="Path-180" data-name="Path" class="cls-4" d="M254.5,801.7c16,12.3,41.8,19.4,60.5,9,1.7-.9.2-3.5-1.5-2.6-17.8,9.8-42.4,2.6-57.4-9C254.4,797.9,252.9,800.5,254.5,801.7Z" transform="translate(-25.84 -20.52)"/><path id="Path-181" data-name="Path" class="cls-4" d="M205.8,814.5c-.6-7.2.8-15.6,5.8-21.1s12.8-4.9,19.6-4.9c12.5.2,25.1,1.5,37-2.9,1.8-.7,1-3.6-.8-2.9-15.3,5.7-31,1.2-46.7,3.2-13.7,1.8-18.9,16.2-17.9,28.6.1,1.9,3.1,2,3,0Z" transform="translate(-25.84 -20.52)"/><path id="Path-182" data-name="Path" class="cls-4" d="M206.4,817.4a47.81,47.81,0,0,1,7-19.3c2-3.1,4.1-6,7.6-7.3s7.4-.8,11-.8c12.1.2,24.5.6,35.5-5.2,1.7-.9.2-3.5-1.5-2.6-7.2,3.8-15.1,4.8-23.1,4.9-6.8.1-14.1-1.1-20.8.2-11.7,2.3-17.1,19.1-18.6,29.2-.3,1.9,2.6,2.8,2.9.9Z" transform="translate(-25.84 -20.52)"/><path id="Path-183" data-name="Path" class="cls-4" d="M205.5,814.8c.7-9.1,1.8-20.8,10.8-25.8,4.9-2.7,11.3-2.1,16.7-2.2,4.7,0,9.4.1,14.2,0,9.1-.2,18.2-.9,26.9-3.9,8.3-2.9,16-7.4,23.5-11.9a1.5,1.5,0,0,0-1.5-2.6c-9.1,5.4-18.4,10.9-28.8,13.3-11.5,2.7-23.4,2-35.1,2.1-8.6.1-16.9.1-22.7,7.4-5.3,6.7-6.1,15.4-6.8,23.6-.3,1.9,2.7,1.9,2.8,0Z" transform="translate(-25.84 -20.52)"/><path id="Path-184" data-name="Path" class="cls-16" d="M273.9,783.9c4.3,4-1.3,11.6,2.6,18.4,5.1,8.8,19.8,9.9,31,9.4-5.9,1.6-14.9,5.3-19.9,13.6-8.8,14.6-2.7,39,18.4,56.2,1.9,15,3.8,30.1,5.8,45.1L295,941.3c.2,16.8.3,33.6.5,50.4a47,47,0,0,1-22,2.6c-9.2-1.1-11.3-4.3-28.9-11.5-16.3-6.7-18.7-5.6-24.1-10.5-10-8.9-11.9-21.4-12.1-22.6-1.3-9.2,2.4-10.4,4.2-28.9a133.08,133.08,0,0,0,.5-19.9c-.4-8.9-1.5-12.2-2.6-22-1.4-11.7-.7-14.1-1.6-25.2-2.2-28.6-8.1-33.8-4.2-48.3,1.6-5.9,3.5-13.3,10-17.3,8.1-5.1,14,.9,31-.5,16.3-1.4,23.8-8,28.2-3.7Z" transform="translate(-25.84 -20.52)"/><path id="Path-185" data-name="Path" class="cls-10" d="M218.3,790.7c-11.1,2.1-18.8,19.5-13.6,29.9,1.7,3.4,5.6,7.8,10.5,8.4,4,.5,5-2.1,11-2.6s7.2,1.9,12.1,1c3.6-.6,8.9-3.1,10.5-7.3,2.8-7.5-7.4-16.6-11-19.9C232.1,795.1,225.7,789.3,218.3,790.7Z" transform="translate(-25.84 -20.52)"/><path id="Path-186" data-name="Path" class="cls-17" d="M211.5,857.4c2.4-.4,7.9,32.5,19.4,64.6a295.73,295.73,0,0,0,35.2,68.2,128.78,128.78,0,0,0-21-8.4c-6.7-2-11.6-2.8-18.4-6.3a62.61,62.61,0,0,1-11-7.3,29.73,29.73,0,0,1-6.3-13.6c-.4-2.3-.3-3.4.5-13.6,1.1-14.8,1.1-15.3,1.6-17.8,1.5-8.2,2.8-8.1,3.1-13.6.4-5.2-.7-6.2-2.1-16.3-1.2-8.8-1.4-15.5-1.6-19.9-.2-10-.4-15.9.6-16Z" transform="translate(-25.84 -20.52)"/><g class="cls-18"><g class="cls-19"><path class="cls-6" d="M772.13,213.93h2.29v18.44h-2.29Z" transform="translate(-25.84 -20.52)"/><path class="cls-6" d="M780.81,216.27a1.42,1.42,0,0,1-2.83,0,1.38,1.38,0,0,1,1.42-1.43A1.36,1.36,0,0,1,780.81,216.27Zm-2.55,16.1V219.8h2.29v12.57Z" transform="translate(-25.84 -20.52)"/><path class="cls-6" d="M784.34,223.2c0-1.3,0-2.36-.1-3.4h2l.1,2h.08a4.33,4.33,0,0,1,3.94-2.31,3.71,3.71,0,0,1,3.56,2.52H794a5.23,5.23,0,0,1,1.41-1.64,4.28,4.28,0,0,1,2.78-.88c1.66,0,4.13,1.09,4.13,5.46v7.4h-2.24v-7.12c0-2.41-.88-3.87-2.73-3.87a3,3,0,0,0-2.7,2.08,3.89,3.89,0,0,0-.18,1.14v7.77h-2.23v-7.53c0-2-.88-3.46-2.63-3.46a3.13,3.13,0,0,0-2.83,2.29,3.08,3.08,0,0,0-.18,1.11v7.59h-2.23Z" transform="translate(-25.84 -20.52)"/><path class="cls-6" d="M768.93,239.61l1.25,1.89c.33.5.6.95.89,1.44h.06c.29-.53.58-1,.87-1.45l1.23-1.88H775l-3,4.26,3.09,4.54h-1.82l-1.29-2c-.34-.51-.63-1-.94-1.53h0c-.29.53-.6,1-.92,1.53l-1.28,2H767l3.13-4.49-3-4.31Z" transform="translate(-25.84 -20.52)"/><path class="cls-6" d="M778.63,235.69h9.09v12.72h-9.09Zm.91,11,3.09-4.63-3.09-4.63Zm6.73-10.08h-6.18l3.09,4.63Zm0,10.9-3.09-4.63-3.09,4.63Zm.54-.82v-9.26l-3.09,4.63Z" transform="translate(-25.84 -20.52)"/><path class="cls-6" d="M808,242.38c0,4-1.49,6.23-4.1,6.23-2.31,0-3.87-2.16-3.91-6.07s1.71-6.14,4.11-6.14S808,238.61,808,242.38Zm-6.41.18c0,3.07.94,4.81,2.4,4.81,1.63,0,2.42-1.9,2.42-4.92s-.75-4.82-2.4-4.82C802.61,237.63,801.59,239.34,801.59,242.56Z" transform="translate(-25.84 -20.52)"/><path class="cls-6" d="M827.68,193.49c0-.91,0-1.65-.07-2.38H829l.09,1.46h0a3.23,3.23,0,0,1,2.91-1.66c1.22,0,3.11.73,3.11,3.75v5.25h-1.6v-5.07c0-1.42-.53-2.6-2-2.6a2.26,2.26,0,0,0-2.14,1.63,2.15,2.15,0,0,0-.11.75v5.29h-1.6Z" transform="translate(-25.84 -20.52)"/><path class="cls-6" d="M816.2,244.06c-.47,0-.71,0-.71-.29,0,0,0-.15.26-.46l13.46-15.77-13.74-18.8c0-.29,0-.78,0-.86s.11-.18.71-.18h30.69L850,215h-.65a8.36,8.36,0,0,0-3.3-3.69,14.72,14.72,0,0,0-5.71-1.95,39,39,0,0,0-6.08-.41H820.07l12.1,16.54c.18.26.18.34.18.39s-.05.21-.23.41L818.9,241.8h15.66a32.08,32.08,0,0,0,8.07-.81c3-.77,5.74-2.54,6.76-5.24H850l-3.15,8.31Z" transform="translate(-25.84 -20.52)"/><path class="cls-6" d="M819.05,251.74a.94.94,0,0,1-1,1,1,1,0,0,1-1-1,1,1,0,0,1,1-1A1,1,0,0,1,819.05,251.74ZM817.27,263v-8.8h1.6V263Z" transform="translate(-25.84 -20.52)"/><path class="cls-6" d="M824,256.88v-1.09h9.38v1.09Zm0,3.56v-1.09h9.38v1.09Z" transform="translate(-25.84 -20.52)"/><path class="cls-6" d="M838.42,252.68h0l-2,1.11-.31-1.21,2.58-1.39H840V263h-1.54Z" transform="translate(-25.84 -20.52)"/><path class="cls-6" d="M858,232.37V221.54h-1.77V219.8H858v-.6a5.9,5.9,0,0,1,1.46-4.39,4.36,4.36,0,0,1,3.06-1.17,5.15,5.15,0,0,1,2,.37l-.31,1.76a3.55,3.55,0,0,0-1.46-.28c-1.95,0-2.44,1.71-2.44,3.63v.68h3v1.74h-3v10.83Z" transform="translate(-25.84 -20.52)"/><path class="cls-6" d="M878.22,214.34A17.12,17.12,0,0,0,875,225a17.46,17.46,0,0,0,3.27,10.54h-1.79A16.77,16.77,0,0,1,873,225a17.18,17.18,0,0,1,3.41-10.63Z" transform="translate(-25.84 -20.52)"/><path class="cls-6" d="M884.42,219.8l1.79,2.7c.47.7.86,1.35,1.27,2.05h.08c.42-.75.83-1.4,1.25-2.08l1.76-2.67H893l-4.28,6.07,4.41,6.5h-2.6l-1.84-2.83c-.49-.73-.91-1.43-1.35-2.19h0c-.42.76-.86,1.43-1.33,2.19l-1.81,2.83h-2.52l4.46-6.42-4.25-6.15Z" transform="translate(-25.84 -20.52)"/><path class="cls-6" d="M899.41,225a1,1,0,0,1-2,0,1,1,0,0,1,1-1A.94.94,0,0,1,899.41,225Zm-1.78,11.26v-8.79h1.6v8.79Z" transform="translate(-25.84 -20.52)"/><path class="cls-6" d="M905.46,235.51a17.54,17.54,0,0,0,3.28-10.62,17.23,17.23,0,0,0-3.28-10.55h1.77a16.57,16.57,0,0,1,3.4,10.57,16.89,16.89,0,0,1-3.4,10.6Z" transform="translate(-25.84 -20.52)"/><path class="cls-6" d="M915.69,231.09l6.11-16.23h2.57l6,16.21v1.3h-14.7Zm12.18-.62-3.55-9.63c-.44-1.22-1-2.78-1.3-3.9h-.08c-.26.88-.73,2.34-1.17,3.56l-3.66,10Z" transform="translate(-25.84 -20.52)"/><path class="cls-6" d="M939.65,219.8l1.79,2.7c.47.7.85,1.35,1.27,2.05h.08c.41-.75.83-1.4,1.25-2.08l1.76-2.67h2.47L944,225.87l4.42,6.5h-2.6L944,229.54c-.5-.73-.91-1.43-1.35-2.19h-.06c-.41.76-.85,1.43-1.32,2.19l-1.82,2.83h-2.52l4.47-6.42-4.26-6.15Z" transform="translate(-25.84 -20.52)"/><path class="cls-6" d="M954.63,225a.94.94,0,0,1-1,1,1,1,0,0,1-1-1,1,1,0,0,1,1-1A.94.94,0,0,1,954.63,225Zm-1.78,11.26v-8.79h1.6v8.79Z" transform="translate(-25.84 -20.52)"/></g></g><g class="cls-20"><g class="cls-21"><path class="cls-6" d="M797.17,411.87c1.93,0,3-4.52,3.39-6.27.75-3.33,1.39-7.32,2-11C805,379,808.07,367,808.14,366.7c1.25-4.89,2.56-7.5,4.37-7.52a2.46,2.46,0,0,1,2.63,2.18,1.16,1.16,0,1,1-2.31.06,1.16,1.16,0,0,1,1.18-1.19,2.37,2.37,0,0,0-1.44-.53c-.93,0-1.71,3.1-2,4.27-.77,3.09-1.6,7.87-2.42,13-1.2,7.67-2.66,15.31-4.41,22.87-1.61,6.94-2.91,12.54-6.54,12.58a2.47,2.47,0,0,1-2.67-2.19,1.16,1.16,0,1,1,2.31-.05,1.15,1.15,0,0,1-1.15,1.19A2.4,2.4,0,0,0,797.17,411.87Z" transform="translate(-25.84 -20.52)"/><path class="cls-6" d="M817.7,365c0-.56,0-1.38,0-2.09l-.12-9.78h1.46l.06,5.07h0a3,3,0,0,1,2.74-1.52c2,0,3.44,1.63,3.46,4.09,0,2.89-1.77,4.35-3.58,4.37a2.88,2.88,0,0,1-2.72-1.49H819l0,1.34Zm1.48-3.26a3.07,3.07,0,0,0,.07.53,2.28,2.28,0,0,0,2.23,1.7c1.53,0,2.44-1.29,2.42-3.14,0-1.62-.87-3-2.45-3a2.33,2.33,0,0,0-2.21,1.83,3.23,3.23,0,0,0-.08.6Z" transform="translate(-25.84 -20.52)"/><path class="cls-6" d="M812.21,413.41l-.13-1H812a3,3,0,0,1-2.46,1.23,2.3,2.3,0,0,1-2.5-2.29c0-1.95,1.7-3,4.83-3.06v-.17a1.66,1.66,0,0,0-1.86-1.85,4,4,0,0,0-2.09.63l-.35-1a5,5,0,0,1,2.65-.75c2.47,0,3.09,1.65,3.11,3.27l0,3a12.31,12.31,0,0,0,.15,1.93Zm-.27-4.13c-1.6,0-3.42.3-3.4,1.87a1.29,1.29,0,0,0,1.4,1.38,2,2,0,0,0,1.94-1.37,1.55,1.55,0,0,0,.08-.47Z" transform="translate(-25.84 -20.52)"/><path class="cls-6" d="M832.38,391.42l-.12-9.95-1.63,0v-1.6l1.62,0v-.55a5.41,5.41,0,0,1,1.29-4,4,4,0,0,1,2.8-1.11,4.94,4.94,0,0,1,1.8.31l-.27,1.63a3.06,3.06,0,0,0-1.34-.25c-1.79,0-2.22,1.6-2.2,3.37v.62l2.79,0,0,1.59-2.8,0,.12,9.95Z" transform="translate(-25.84 -20.52)"/><path class="cls-6" d="M850.78,374.64a15.72,15.72,0,0,0-2.9,9.8,16,16,0,0,0,3.13,9.65l-1.65,0a15.37,15.37,0,0,1-3.24-9.65,15.77,15.77,0,0,1,3-9.8Z" transform="translate(-25.84 -20.52)"/><path class="cls-6" d="M856.53,379.59l1.68,2.46c.44.64.8,1.23,1.19,1.87h.07c.38-.7.75-1.3,1.12-1.92l1.6-2.48,2.27,0-3.88,5.63,4.13,5.92-2.38,0-1.73-2.58c-.46-.67-.85-1.31-1.27-2h0c-.38.69-.77,1.32-1.2,2l-1.63,2.62-2.32,0,4-5.95-4-5.61Z" transform="translate(-25.84 -20.52)"/><path class="cls-6" d="M868.1,393.89a16.2,16.2,0,0,0,2.89-9.8,15.84,15.84,0,0,0-3.12-9.65l1.62,0a15.17,15.17,0,0,1,3.24,9.68,15.5,15.5,0,0,1-3,9.77Z" transform="translate(-25.84 -20.52)"/><path class="cls-6" d="M892.36,373.77l.17,14c0,1,.05,2.19.13,3l-1.89,0-.12-2h0a4.24,4.24,0,0,1-3.9,2.31c-2.8,0-5-2.3-5-5.81-.07-3.84,2.28-6.23,5.1-6.26a3.83,3.83,0,0,1,3.5,1.72h.05l-.08-6.9Zm-2,10.12a3.86,3.86,0,0,0-.1-.89,3.09,3.09,0,0,0-3.06-2.39c-2.18,0-3.44,1.95-3.41,4.5,0,2.34,1.19,4.26,3.46,4.23a3.16,3.16,0,0,0,3.05-2.54,3.32,3.32,0,0,0,.08-.91Z" transform="translate(-25.84 -20.52)"/><path class="cls-6" d="M896.89,379.11l1.67,2.46c.44.64.81,1.23,1.2,1.87h.07c.37-.7.75-1.3,1.12-1.92l1.59-2.48,2.27,0-3.87,5.63,4.13,5.92-2.39,0L901,388c-.46-.66-.85-1.3-1.26-2h-.05c-.37.7-.77,1.32-1.19,2l-1.64,2.62-2.31,0,4-5.95-4-5.6Z" transform="translate(-25.84 -20.52)"/></g></g></svg>