<?xml version="1.0" encoding="utf-8"?>
<!-- Generator: Adobe Illustrator 25.0.1, SVG Export Plug-In . SVG Version: 6.00 Build 0)  -->
<svg version="1.1" id="Layer_1" xmlns="http://www.w3.org/2000/svg" xmlns:xlink="http://www.w3.org/1999/xlink" x="0px" y="0px"
	 viewBox="0 0 240 50.4" style="enable-background:new 0 0 240 50.4;" xml:space="preserve">
<style type="text/css">
	.st0{enable-background:new    ;}
	.st1{fill:#CF2F5D;}
	.st2{fill:#4F806F;}
</style>
<g id="Layer_1_1_">
	<g class="st0">
		<path class="st1" d="M11.5,35.1c0,3,0.9,3.4,5.1,3.4c5,0,6.4-2.4,7.9-7.4h1.4l-0.7,9h-24v-1.3c3.3-0.2,3.6-0.4,3.6-2.7V12.8
			c0-2.4-0.3-2.5-3.6-2.7V8.8h14.3v1.3c-3.8,0.1-4.1,0.3-4.1,2.7v22.3H11.5z"/>
		<path class="st1" d="M35.3,28.5c0,5,1.4,9.3,6.1,9.3c3.1,0,4.9-1.5,6.4-4.4l1.1,0.6c-1.4,3.9-4.2,6.7-9.4,6.7
			c-8.2,0-10.7-5.1-10.7-11.6c0-6.4,3-11.6,10.8-11.6c8.6,0,9.6,5.9,9.6,9.2c0,1.3-0.7,1.8-2.3,1.8C46.9,28.5,35.3,28.5,35.3,28.5z
			 M41.5,26.9c1.1,0,1.5-0.4,1.5-1.6c0-2.5-0.5-6.2-3.6-6.2c-3.3,0-4.1,4.7-4.1,7.8C35.3,26.9,41.5,26.9,41.5,26.9z"/>
		<path class="st1" d="M54.4,22.6c0-1.8-0.3-2.2-1.1-2.3l-1.5-0.2v-1.2l8.2-1.2l0.6,3.1c2.4-1.5,4.5-3.2,7.5-3.2
			c3.3,0,5.1,1.7,6,3.4c1.9-1.2,4.6-3.4,7.8-3.4c4.6,0,6.8,2.7,6.8,7v11.9c0,2,0.2,2.1,2.9,2.3v1.3H80.1v-1.3
			c1.9-0.1,2.6-0.1,2.6-2.1V24.9c0-3.1-1.5-4.6-3.8-4.6c-1.8,0-3.3,1-3.9,3c-0.2,0.6-0.3,1.4-0.3,2.3v11c0,2,0.7,1.9,2.6,2.1V40H66
			v-1.3c1.9-0.1,2.6-0.1,2.6-2.1V24.9c0-2.7-1.1-4.6-3.5-4.6c-2,0-3.6,1.1-4.2,3.1c-0.2,0.6-0.2,1.4-0.2,2.2v11c0,2,0.7,1.9,2.6,2.1
			V40H51.5v-1.3c2.7-0.1,2.9-0.4,2.9-2.3V22.6z"/>
		<path class="st1" d="M116.8,36.5c0,2,0.2,2.1,2.9,2.2V40h-11.6v-1.3c1.9-0.1,2.6-0.1,2.6-2.1V24.8c0-3-1.3-4.5-3.8-4.5
			c-2,0-3.4,1.1-4.1,2.4c-0.3,0.6-0.4,1.6-0.4,2.6v11.3c0,2,0.7,2,2.6,2.1V40H93.4v-1.3c2.7-0.1,2.9-0.3,2.9-2.3V22.6
			c0-1.9-0.3-2.2-1.1-2.3l-1.5-0.2v-1.2l8.2-1.2l0.6,3.2c2.9-1.8,5-3.2,7.8-3.2c4.5,0,6.6,2.7,6.6,7L116.8,36.5L116.8,36.5z"/>
		<path class="st1" d="M124.3,22.5c0-1.8-0.3-2.2-1.2-2.2l-1.4-0.2v-1.2l8.5-1.2l0.2,0.2v18.7c0,2,0.2,2.1,2.9,2.3v1.3h-11.9v-1.3
			c2.6-0.1,2.9-0.3,2.9-2.3V22.5z M127.3,8.3c2.1,0,3.3,1.5,3.3,3.3s-1.3,3.3-3.3,3.3c-2.1,0-3.3-1.5-3.3-3.3S125.2,8.3,127.3,8.3
			L127.3,8.3z"/>
		<path class="st1" d="M149.8,24.9c-0.8-3.3-2.9-5.8-5.4-5.8c-2,0-3.2,1.3-3.2,3.1c0,2.2,2.1,3.2,4.7,4.2c4.3,1.6,6.5,3.2,6.5,7.1
			c0,4.7-3.7,7.3-9,7.3c-2.5,0-5.6-0.6-7.1-2l-0.5-6.6h1.3c1.1,3.7,3.5,7.1,6.6,7.1c2,0,3.4-1.1,3.4-3.2c0-2.2-2-3.3-4.6-4.4
			c-4.2-1.6-6.4-3.5-6.4-7c0-4.5,3.3-7.1,8.5-7.1c2.2,0,4.7,0.5,6.4,1.5V25L149.8,24.9L149.8,24.9z"/>
		<path class="st2" d="M176.1,33.8c-1.5,5.3-5.6,6.9-9.5,6.9c-6.5,0-10.4-3.8-10.4-11.4c0-6.9,3.7-11.8,11.3-11.8
			c4.3,0,8.3,1.9,8.3,4.8c0,1.9-2,2.7-3.4,2.7c-1.1,0-1.8-0.5-2-1.4c-0.7-2.9-1.4-4.5-3.4-4.5c-2.2,0-4.2,2.9-4.2,9.1
			c0,6.5,2.5,9.6,5.9,9.6c2.6,0,4.8-1.1,6.4-4.5L176.1,33.8z"/>
		<path class="st2" d="M197.5,34.6c0,2.6,0.5,3.2,1.2,3.5c0.5,0.2,1.3,0.2,1.9,0.2l0.1,1.1c-1.4,0.7-3.3,1.3-5.6,1.3
			c-2.1,0-3-1.1-3.5-2.8c-1.5,1-3.6,2.8-6.5,2.8c-4.5,0-6.6-3.1-6.6-6.5c0-2.4,1.1-4.4,4.6-5.5c3.2-0.9,7-2.1,8.3-3.2v-2.4
			c0-2.9-1.3-4.1-3.1-4.1c-1.6,0-3.1,0.9-4.1,5c-0.2,1-0.8,1.5-1.8,1.5c-1.1,0-3.4-0.7-3.4-2.6c0-2.6,3.5-5.4,9.7-5.4
			c7.7,0,8.5,3.7,8.5,6.4v10.7H197.5z M191.5,27.3c-1.1,0.5-2.8,1.2-4.3,2c-1.6,0.8-2.3,2-2.3,4.1c0,2.6,1.4,4.5,3.6,4.5
			c1.2,0,3.1-0.7,3.1-3.4v-7.2H191.5z"/>
		<path class="st2" d="M210.7,20v13.6c0,3,1.1,4.2,2.8,4.2c0.8,0,1.6-0.1,2.3-0.5l0.4,1.1c-2.3,1.6-4.5,2.3-6.4,2.3
			c-2.2,0-5.2-1.3-5.2-5.6V20h-2.7v-1.9h3l3.7-5.6h2.2v5.6h4.8V20H210.7z"/>
		<path class="st2" d="M224.4,28.5c0,5,1.4,9.3,6.1,9.3c3.1,0,4.9-1.5,6.4-4.4L238,34c-1.4,3.9-4.2,6.7-9.4,6.7
			c-8.2,0-10.7-5.1-10.7-11.6c0-6.4,3-11.6,10.8-11.6c8.6,0,9.6,5.9,9.6,9.2c0,1.3-0.7,1.8-2.3,1.8H224.4z M230.6,26.9
			c1.1,0,1.5-0.4,1.5-1.6c0-2.5-0.5-6.2-3.6-6.2c-3.3,0-4.1,4.7-4.1,7.8C224.4,26.9,230.6,26.9,230.6,26.9z"/>
	</g>
</g>
</svg>
